<?xml version="1.0" standalone="no"?>
<!DOCTYPE svg PUBLIC "-//W3C//DTD SVG 1.1//EN" "http://www.w3.org/Graphics/SVG/1.1/DTD/svg11.dtd">
<svg xmlns="http://www.w3.org/2000/svg">
<metadata>Copyright (C) 2021 by original authors @ fontello.com</metadata>
<defs>
<font id="ico" horiz-adv-x="1000" >
<font-face font-family="ico" font-weight="400" font-stretch="normal" units-per-em="1000" ascent="850" descent="-150" />
<missing-glyph horiz-adv-x="1000" />
<glyph glyph-name="star" unicode="&#xe800;" d="M929 489q0-12-15-27l-202-197 48-279q0-4 0-12 0-11-6-19t-17-9q-10 0-22 7l-251 132-250-132q-12-7-23-7-11 0-17 9t-6 19q0 4 1 12l48 279-203 197q-14 15-14 27 0 21 31 26l280 40 126 254q11 23 27 23t28-23l125-254 280-40q32-5 32-26z" horiz-adv-x="928.6" />

<glyph glyph-name="star-empty" unicode="&#xe801;" d="M635 290l170 166-235 34-106 213-105-213-236-34 171-166-41-235 211 111 211-111z m294 199q0-12-15-27l-202-197 48-279q0-4 0-12 0-28-23-28-10 0-22 7l-251 132-250-132q-12-7-23-7-11 0-17 9t-6 19q0 4 1 12l48 279-203 197q-14 15-14 27 0 21 31 26l280 40 126 254q11 23 27 23t28-23l125-254 280-40q32-5 32-26z" horiz-adv-x="928.6" />

<glyph glyph-name="mail" unicode="&#xe802;" d="M929 11v428q-18-20-39-36-149-115-238-189-28-24-46-37t-48-28-57-13h-2q-26 0-57 13t-48 28-46 37q-88 74-238 189-21 16-39 36v-428q0-7 6-13t12-5h822q7 0 12 5t6 13z m0 586v14t-1 7-1 7-3 5-5 4-8 2h-822q-7 0-12-6t-6-12q0-94 83-159 107-84 223-176 4-3 20-17t25-21 25-17 28-16 24-5h2q11 0 24 5t28 16 25 17 25 21 20 17q116 92 224 176 30 24 56 65t26 73z m71 21v-607q0-37-26-63t-63-27h-822q-36 0-63 27t-26 63v607q0 37 26 63t63 26h822q37 0 63-26t26-63z" horiz-adv-x="1000" />

<glyph glyph-name="doc" unicode="&#xe803;" d="M819 638q16-16 27-42t11-50v-642q0-23-15-38t-38-16h-750q-23 0-38 16t-16 38v892q0 23 16 38t38 16h500q22 0 49-11t42-27z m-248 136v-210h210q-5 17-12 23l-175 175q-6 7-23 12z m215-853v572h-232q-23 0-38 16t-16 37v233h-429v-858h715z" horiz-adv-x="857.1" />

<glyph glyph-name="location" unicode="&#xe804;" d="M429 493q0 59-42 101t-101 42-101-42-42-101 42-101 101-42 101 42 42 101z m142 0q0-61-18-100l-203-432q-9-18-27-29t-37-11-38 11-26 29l-204 432q-18 39-18 100 0 118 84 202t202 84 202-84 83-202z" horiz-adv-x="571.4" />

<glyph glyph-name="cancel-circled" unicode="&#xe805;" d="M641 224q0 14-10 25l-101 101 101 101q10 11 10 25 0 15-10 26l-51 50q-10 11-25 11-15 0-25-11l-101-101-101 101q-11 11-25 11-16 0-26-11l-50-50q-11-11-11-26 0-14 11-25l101-101-101-101q-11-11-11-25 0-15 11-26l50-50q10-11 26-11 14 0 25 11l101 101 101-101q10-11 25-11 15 0 25 11l51 50q10 11 10 26z m216 126q0-117-57-215t-156-156-215-58-216 58-155 156-58 215 58 215 155 156 216 58 215-58 156-156 57-215z" horiz-adv-x="857.1" />

<glyph glyph-name="cancel-circled2" unicode="&#xe806;" d="M612 248l-81-82q-6-5-13-5t-13 5l-76 77-77-77q-5-5-13-5t-12 5l-82 82q-6 6-6 13t6 13l76 76-76 77q-6 5-6 12t6 13l82 82q5 5 12 5t13-5l77-77 76 77q6 5 13 5t13-5l81-82q6-5 6-13t-6-12l-76-77 76-76q6-6 6-13t-6-13z m120 102q0 83-41 152t-110 111-152 41-153-41-110-111-41-152 41-152 110-111 153-41 152 41 110 111 41 152z m125 0q0-117-57-215t-156-156-215-58-216 58-155 156-58 215 58 215 155 156 216 58 215-58 156-156 57-215z" horiz-adv-x="857.1" />

<glyph glyph-name="cancel" unicode="&#xe807;" d="M724 112q0-22-15-38l-76-76q-16-15-38-15t-38 15l-164 165-164-165q-16-15-38-15t-38 15l-76 76q-16 16-16 38t16 38l164 164-164 164q-16 16-16 38t16 38l76 76q16 16 38 16t38-16l164-164 164 164q16 16 38 16t38-16l76-76q15-15 15-38t-15-38l-164-164 164-164q15-15 15-38z" horiz-adv-x="785.7" />

<glyph glyph-name="plus-circled" unicode="&#xe808;" d="M679 314v72q0 14-11 25t-25 10h-143v143q0 15-11 25t-25 11h-71q-15 0-25-11t-11-25v-143h-143q-14 0-25-10t-10-25v-72q0-14 10-25t25-10h143v-143q0-15 11-25t25-11h71q15 0 25 11t11 25v143h143q14 0 25 10t11 25z m178 36q0-117-57-215t-156-156-215-58-216 58-155 156-58 215 58 215 155 156 216 58 215-58 156-156 57-215z" horiz-adv-x="857.1" />

<glyph glyph-name="plus-squared" unicode="&#xe809;" d="M714 314v72q0 14-10 25t-25 10h-179v179q0 15-11 25t-25 11h-71q-15 0-25-11t-11-25v-179h-178q-15 0-25-10t-11-25v-72q0-14 11-25t25-10h178v-179q0-14 11-25t25-11h71q15 0 25 11t11 25v179h179q14 0 25 10t10 25z m143 304v-536q0-66-47-113t-114-48h-535q-67 0-114 48t-47 113v536q0 66 47 113t114 48h535q67 0 114-48t47-113z" horiz-adv-x="857.1" />

<glyph glyph-name="plus-squared-alt" unicode="&#xe80a;" d="M643 404v-36q0-8-5-13t-13-5h-196v-196q0-8-5-13t-13-5h-36q-8 0-13 5t-5 13v196h-196q-8 0-13 5t-5 13v36q0 7 5 12t13 5h196v197q0 8 5 13t13 5h36q8 0 13-5t5-13v-197h196q8 0 13-5t5-12z m71-250v464q0 37-26 63t-63 26h-464q-37 0-63-26t-27-63v-464q0-37 27-63t63-27h464q37 0 63 27t26 63z m72 464v-464q0-67-47-114t-114-47h-464q-67 0-114 47t-47 114v464q0 66 47 113t114 48h464q66 0 114-48t47-113z" horiz-adv-x="785.7" />

<glyph glyph-name="angle-left" unicode="&#xe80b;" d="M350 546q0-7-6-12l-219-220 219-219q6-6 6-13t-6-13l-28-28q-5-5-12-5t-13 5l-260 261q-6 5-6 12t6 13l260 260q5 6 13 6t12-6l28-28q6-5 6-13z" horiz-adv-x="357.1" />

<glyph glyph-name="angle-right" unicode="&#xe80c;" d="M332 314q0-7-5-12l-261-261q-5-5-12-5t-13 5l-28 28q-6 6-6 13t6 13l219 219-219 220q-6 5-6 12t6 13l28 28q5 6 13 6t12-6l261-260q5-5 5-13z" horiz-adv-x="357.1" />

<glyph glyph-name="angle-up" unicode="&#xe80d;" d="M600 189q0-7-6-12l-28-28q-5-6-12-6t-13 6l-220 219-219-219q-5-6-13-6t-12 6l-28 28q-6 5-6 12t6 13l260 260q5 6 12 6t13-6l260-260q6-5 6-13z" horiz-adv-x="642.9" />

<glyph glyph-name="angle-down" unicode="&#xe80e;" d="M600 439q0-7-6-12l-260-261q-5-5-13-5t-12 5l-260 261q-6 5-6 12t6 13l28 28q5 6 12 6t13-6l219-219 220 219q5 6 13 6t12-6l28-28q6-5 6-13z" horiz-adv-x="642.9" />

<glyph glyph-name="down-big" unicode="&#xe80f;" d="M899 386q0-30-21-50l-363-364q-22-21-51-21-29 0-50 21l-363 364q-21 20-21 50 0 29 21 51l41 41q22 21 51 21 29 0 50-21l164-164v393q0 29 21 50t51 22h71q29 0 50-22t21-50v-393l165 164q20 21 50 21 29 0 51-21l41-41q21-22 21-51z" horiz-adv-x="928.6" />

<glyph glyph-name="left-big" unicode="&#xe810;" d="M857 350v-71q0-30-18-51t-47-21h-393l164-164q21-20 21-50t-21-50l-42-43q-21-20-51-20-29 0-50 20l-364 364q-20 21-20 50 0 29 20 51l364 363q21 21 50 21 29 0 51-21l42-41q21-22 21-51t-21-51l-164-164h393q29 0 47-20t18-51z" horiz-adv-x="857.1" />

<glyph glyph-name="right-big" unicode="&#xe811;" d="M821 314q0-30-20-50l-363-364q-22-20-51-20-29 0-50 20l-42 42q-22 21-22 51t22 51l163 163h-393q-29 0-47 21t-18 51v71q0 30 18 51t47 20h393l-163 165q-22 20-22 50t22 50l42 42q21 21 50 21 29 0 51-21l363-363q20-20 20-51z" horiz-adv-x="857.1" />

<glyph glyph-name="up-big" unicode="&#xe812;" d="M899 308q0-28-21-50l-41-42q-22-21-51-21-30 0-50 21l-165 164v-393q0-29-20-47t-51-19h-71q-30 0-51 19t-21 47v393l-164-164q-20-21-50-21t-50 21l-42 42q-21 21-21 50 0 30 21 51l363 363q20 21 50 21 30 0 51-21l363-363q21-22 21-51z" horiz-adv-x="928.6" />

<glyph glyph-name="down-open-big" unicode="&#xe813;" d="M63 570l370-356 372 356q22 26 48 0 26-22 0-48l-396-392q-22-22-48 0l-396 392q-26 26 0 48 24 24 50 0z" horiz-adv-x="866" />

<glyph glyph-name="left-open-big" unicode="&#xe814;" d="M452-20q26-26 0-48-26-26-48 0l-392 394q-24 24 0 50l392 394q22 26 48 0 26-22 0-48l-358-372z" horiz-adv-x="465" />

<glyph glyph-name="up-open-big" unicode="&#xe815;" d="M804 130l-372 358-370-358q-26-22-50 0-24 24 0 50l396 390q26 26 48 0l396-390q24-26 0-50-26-22-48 0z" horiz-adv-x="864" />

<glyph glyph-name="right-open-big" unicode="&#xe816;" d="M13-20l358 370-358 372q-26 26 0 48 26 26 48 0l392-394q24-26 0-50l-392-394q-22-26-48 0-26 22 0 48z" horiz-adv-x="465" />

<glyph glyph-name="phone" unicode="&#xe817;" d="M786 158q0-15-6-39t-12-38q-11-28-68-60-52-28-103-28-15 0-30 2t-32 7-26 8-31 11-28 10q-54 20-97 47-71 44-148 120t-120 148q-27 43-46 97-2 5-10 28t-12 31-8 26-7 32-2 29q0 52 29 104 31 57 59 68 14 6 38 12t39 6q8 0 12-2 10-3 30-42 6-11 16-31t20-35 17-30q2-2 10-14t12-20 4-16q0-11-16-27t-35-31-34-30-16-25q0-5 3-13t4-11 8-14 7-10q42-77 97-132t131-97q1 0 10-6t14-8 11-5 13-2q10 0 25 16t30 34 31 35 28 16q7 0 15-4t20-12 14-10q14-8 30-17t36-20 30-17q39-19 42-29 2-4 2-12z" horiz-adv-x="785.7" />

<glyph glyph-name="calendar" unicode="&#xe818;" d="M71-79h161v161h-161v-161z m197 0h178v161h-178v-161z m-197 197h161v178h-161v-178z m197 0h178v178h-178v-178z m-197 214h161v161h-161v-161z m411-411h179v161h-179v-161z m-214 411h178v161h-178v-161z m428-411h161v161h-161v-161z m-214 197h179v178h-179v-178z m-196 482v161q0 7-6 12t-12 6h-36q-7 0-12-6t-6-12v-161q0-7 6-13t12-5h36q7 0 12 5t6 13z m410-482h161v178h-161v-178z m-214 214h179v161h-179v-161z m214 0h161v161h-161v-161z m18 268v161q0 7-5 12t-13 6h-35q-7 0-13-6t-5-12v-161q0-7 5-13t13-5h35q8 0 13 5t5 13z m215 36v-715q0-29-22-50t-50-21h-786q-29 0-50 21t-21 50v715q0 29 21 50t50 21h72v54q0 37 26 63t63 26h36q37 0 63-26t26-63v-54h214v54q0 37 27 63t63 26h35q37 0 64-26t26-63v-54h71q29 0 50-21t22-50z" horiz-adv-x="928.6" />

<glyph glyph-name="attention-alt" unicode="&#xe819;" d="M286 154v-125q0-15-11-25t-25-11h-143q-14 0-25 11t-11 25v125q0 14 11 25t25 10h143q15 0 25-10t11-25z m17 589l-16-429q-1-14-12-25t-25-10h-143q-14 0-25 10t-12 25l-15 429q-1 14 10 25t24 11h179q14 0 25-11t10-25z" horiz-adv-x="357.1" />

<glyph glyph-name="home" unicode="&#xe81a;" d="M786 296v-267q0-15-11-25t-25-11h-214v214h-143v-214h-214q-15 0-25 11t-11 25v267q0 1 0 2t0 2l321 264 321-264q1-1 1-4z m124 39l-34-41q-5-5-12-6h-2q-7 0-12 3l-386 322-386-322q-7-4-13-3-7 1-12 6l-35 41q-4 6-3 13t6 12l401 334q18 15 42 15t43-15l136-113v108q0 8 5 13t13 5h107q8 0 13-5t5-13v-227l122-102q6-4 6-12t-4-13z" horiz-adv-x="928.6" />

<glyph glyph-name="attention-circled" unicode="&#xe81b;" d="M429 779q116 0 215-58t156-156 57-215-57-215-156-156-215-58-216 58-155 156-58 215 58 215 155 156 216 58z m71-696v106q0 8-5 13t-12 5h-107q-8 0-13-5t-6-13v-106q0-8 6-13t13-6h107q7 0 12 6t5 13z m-1 192l10 346q0 7-6 10-5 5-13 5h-123q-8 0-13-5-6-3-6-10l10-346q0-6 5-10t14-4h103q8 0 13 4t6 10z" horiz-adv-x="857.1" />

<glyph glyph-name="down-dir" unicode="&#xe81c;" d="M460 550l-230-400-230 400 460 0z" horiz-adv-x="460" />

<glyph glyph-name="left-dir" unicode="&#xe81d;" d="M400 580l0-460-400 230z" horiz-adv-x="400" />

<glyph glyph-name="right-dir" unicode="&#xe81e;" d="M0 580l400-230-400-230 0 460z" horiz-adv-x="400" />

<glyph glyph-name="up-dir" unicode="&#xe81f;" d="M0 150l230 400 230-400-460 0z" horiz-adv-x="460" />

<glyph glyph-name="download-cloud" unicode="&#xe820;" d="M714 332q0 8-5 13t-13 5h-125v196q0 8-5 13t-12 5h-108q-7 0-12-5t-5-13v-196h-125q-8 0-13-5t-5-13q0-8 5-13l196-196q5-5 13-5t13 5l196 196q5 6 5 13z m357-125q0-89-62-151t-152-63h-607q-103 0-177 73t-73 177q0 72 39 134t105 92q-1 17-1 24 0 118 84 202t202 84q87 0 159-49t105-129q40 35 93 35 59 0 101-42t42-101q0-43-23-77 72-17 119-76t46-133z" horiz-adv-x="1071.4" />

<glyph glyph-name="upload-cloud" unicode="&#xe821;" d="M714 368q0 8-5 13l-196 196q-5 5-13 5t-13-5l-196-196q-5-6-5-13 0-8 5-13t13-5h125v-196q0-8 5-13t12-5h108q7 0 12 5t5 13v196h125q8 0 13 5t5 13z m357-161q0-89-62-151t-152-63h-607q-103 0-177 73t-73 177q0 72 39 134t105 92q-1 17-1 24 0 118 84 202t202 84q87 0 159-49t105-129q40 35 93 35 59 0 101-42t42-101q0-43-23-77 72-17 119-76t46-133z" horiz-adv-x="1071.4" />

<glyph glyph-name="help" unicode="&#xe822;" d="M393 149v-134q0-9-7-15t-15-7h-134q-9 0-16 7t-7 15v134q0 9 7 16t16 6h134q9 0 15-6t7-16z m176 335q0-30-8-56t-20-43-31-33-32-25-34-19q-23-13-38-37t-15-37q0-10-7-18t-16-9h-134q-8 0-14 11t-6 20v26q0 46 37 87t79 60q33 16 47 32t14 42q0 24-26 41t-60 18q-36 0-60-16-20-14-60-64-7-9-17-9-7 0-14 4l-91 70q-8 6-9 14t3 16q89 148 259 148 45 0 90-17t81-46 59-72 23-88z" horiz-adv-x="571.4" />

<glyph glyph-name="camera" unicode="&#xe823;" d="M536 475q66 0 113-47t47-114-47-113-113-47-114 47-47 113 47 114 114 47z m393 232q59 0 101-42t41-101v-500q0-59-41-101t-101-42h-786q-59 0-101 42t-42 101v500q0 59 42 101t101 42h125l28 76q11 27 39 47t58 20h286q29 0 57-20t39-47l29-76h125z m-393-643q103 0 176 74t74 176-74 177-176 73-177-73-73-177 73-176 177-74z" horiz-adv-x="1071.4" />

<glyph glyph-name="ok" unicode="&#xe824;" d="M933 534q0-22-16-38l-404-404-76-76q-16-15-38-15t-38 15l-76 76-202 202q-15 16-15 38t15 38l76 76q16 16 38 16t38-16l164-165 366 367q16 16 38 16t38-16l76-76q16-15 16-38z" horiz-adv-x="1000" />

<glyph glyph-name="user" unicode="&#xe825;" d="M714 69q0-60-35-104t-84-44h-476q-49 0-84 44t-35 104q0 48 5 90t17 85 33 73 52 50 76 19q73-72 174-72t175 72q42 0 75-19t52-50 33-73 18-85 4-90z m-143 495q0-88-62-151t-152-63-151 63-63 151 63 152 151 63 152-63 62-152z" horiz-adv-x="714.3" />

<glyph glyph-name="cloud" unicode="&#xe826;" d="M0 257q-2 44 10 86t35 78 57 64 77 45q77 30 156 13 36 81 111 130t166 49q62 0 118-25t97-64 65-98 25-118q0-9-2-27 1 0 3 1t3 1q81 31 159-3t110-116q20-55 12-108t-43-97-88-64q-37-14-73-14h-718v0q-86 0-158 49t-103 130q-17 43-19 88z" horiz-adv-x="1205.1" />

<glyph glyph-name="login" unicode="&#xe827;" d="M800 800q42 0 71-29t29-71l0-700q0-40-29-70t-71-30l-450 0q-40 0-69 30t-29 70l0 100 98 0 0-100 450 0 0 700-450 0 0-150-98 0 0 150q0 42 29 71t69 29l450 0z m-350-670l0 120-450 0 0 150 450 0 0 120 200-194z" horiz-adv-x="900" />

<glyph glyph-name="logout" unicode="&#xe828;" d="M502 0l0 100 98 0 0-100q0-40-29-70t-71-30l-400 0q-40 0-70 30t-30 70l0 700q0 42 30 71t70 29l400 0q42 0 71-29t29-71l0-150-98 0 0 150-402 0 0-700 402 0z m398 326l-198-196 0 120-450 0 0 150 450 0 0 120z" horiz-adv-x="900" />

<glyph glyph-name="info" unicode="&#xe829;" d="M352 850q48 0 74-27t26-69q0-50-39-88t-95-38q-48 0-74 26t-24 72q0 46 35 85t97 39z m-206-1000q-100 0-54 178l60 254q14 56 0 56-12 0-54-18t-72-38l-26 44q90 78 189 126t151 48q78 0 36-162l-70-266q-16-64 6-64 44 0 118 60l30-40q-84-86-175-132t-139-46z" horiz-adv-x="460" />

<glyph glyph-name="info-circled-alt" unicode="&#xe82a;" d="M0 350q0 95 37 182t100 149 149 100 183 37q95 0 182-37t149-100 100-149 37-182q0-95-37-182t-100-150-149-100-182-37q-96 0-183 37t-149 100-100 150-37 182z m117 0q0-71 28-137t75-112 112-75 137-28 136 28 112 75 75 112 28 137-28 136-75 112-112 75-136 28-137-28-112-75-75-112-28-136z m281 170q0 28 20 45t51 17q32 0 51-17t19-45-19-46-51-17q-32 0-51 17t-20 46z m5-402v299h132v-299h-132z" horiz-adv-x="937.5" />

<glyph glyph-name="doc-text" unicode="&#xe82b;" d="M819 638q16-16 27-42t11-50v-642q0-23-15-38t-38-16h-750q-23 0-38 16t-16 38v892q0 23 16 38t38 16h500q22 0 49-11t42-27z m-248 136v-210h210q-5 17-12 23l-175 175q-6 7-23 12z m215-853v572h-232q-23 0-38 16t-16 37v233h-429v-858h715z m-572 483q0 7 5 12t13 5h393q8 0 13-5t5-12v-36q0-8-5-13t-13-5h-393q-8 0-13 5t-5 13v36z m411-125q8 0 13-5t5-13v-36q0-8-5-13t-13-5h-393q-8 0-13 5t-5 13v36q0 8 5 13t13 5h393z m0-143q8 0 13-5t5-13v-36q0-8-5-13t-13-5h-393q-8 0-13 5t-5 13v36q0 8 5 13t13 5h393z" horiz-adv-x="857.1" />

<glyph glyph-name="home-1" unicode="&#xe82c;" d="M888 336q16-16 11-27t-27-11l-84 0 0-310q0-14-1-21t-8-13-23-6l-204 0 0 310-204 0 0-310-194 0q-28 0-35 10t-7 30l0 310-84 0q-22 0-27 11t11 27l400 402q16 16 38 16t38-16z" horiz-adv-x="900" />

<glyph glyph-name="newspaper" unicode="&#xe82d;" d="M700 800q42 0 71-29t29-71l0-700q0-40-29-70t-71-30l-600 0q-40 0-70 30t-30 70l0 700q0 42 30 71t70 29l600 0z m0-800l0 700-600 0 0-700 600 0z m-250 250l0-50-250 0 0 50 250 0z m150 200l0-50-200 0 0 50 200 0z m-200 50l0 100 200 0 0-100-200 0z m-50 100l0-200-150 0 0 200 150 0z m-50-250l0-50-100 0 0 50 100 0z m50-50l0 50 250 0 0-50-250 0z m250-150l0-50-400 0 0 50 400 0z m-100 50l0 50 100 0 0-50-100 0z" horiz-adv-x="800" />

<glyph glyph-name="chart-pie" unicode="&#xe82e;" d="M368 770l0-368-368 0q18 146 121 249t247 119z m106 0q156-20 261-139t105-279q0-174-123-298t-299-124q-160 0-278 105t-140 263l424 0q20 0 35 14t15 36l0 422z" horiz-adv-x="840" />

<glyph glyph-name="chart-bar" unicode="&#xe82f;" d="M750 800q22 0 36-15t14-35l0-850-200 0 0 850q0 50 40 50l110 0z m-300-300q22 0 36-15t14-35l0-550-200 0 0 550q0 50 40 50l110 0z m-300-300q22 0 36-15t14-35l0-250-200 0 0 250q0 50 40 50l110 0z" horiz-adv-x="800" />

<glyph glyph-name="clock" unicode="&#xe830;" d="M460 810q190 0 325-135t135-325-135-325-325-135-325 135-135 325 135 325 325 135z m0-820q150 0 255 106t105 254q0 150-105 255t-255 105q-148 0-254-105t-106-255q0-148 106-254t254-106z m36 620l0-244 150-150-50-50-170 170 0 274 70 0z" horiz-adv-x="920" />

<glyph glyph-name="flow-tree" unicode="&#xe831;" d="M868 112q72-34 72-112 0-50-35-85t-85-35-85 35-35 85q0 78 72 112l0 114q0 78-76 78l-100 0q-44 0-78 12l0-204q72-34 72-112 0-50-35-85t-85-35-85 35-35 85q0 78 72 112l0 204q-30-12-76-12l-100 0q-34 0-53-19t-22-33-3-26l0-114q72-34 72-112 0-50-35-85t-85-35-85 35-35 85q0 78 72 112l0 114q0 64 43 118t131 54l100 0q76 0 76 52l0 140q-72 34-72 110 0 50 35 85t85 35 85-35 35-85q0-76-72-110l0-140q0-52 78-52l100 0q86 0 129-54t43-118l0-114z m-678-112q0 30-21 50t-49 20-48-20-20-50q0-28 20-48t48-20 49 20 21 48z m212 700q0-28 20-48t48-20 49 20 21 48q0 30-21 50t-49 20-48-20-20-50z m138-700q0 30-21 50t-49 20-48-20-20-50q0-28 20-48t48-20 49 20 21 48z m280-68q28 0 49 20t21 48q0 30-21 50t-49 20-48-20-20-50q0-28 20-48t48-20z" horiz-adv-x="940" />

<glyph glyph-name="book-open" unicode="&#xe832;" d="M340 238l0-68-200 80 0 68z m0 208l0-68-200 80 0 68z m538 346q22-12 22-42l0-640q0-34-32-46l-398-160q-8-2-10-2t-5-1-5-1-5 1-5 1l-10 2-398 160q-32 12-32 46l0 640q0 30 22 42 22 16 46 6l382-154 382 154q24 10 46-6z m-478-788l0 560-320 128 0-560z m420 128l0 560-320-128 0-560z m-60 186l0-68-200-80 0 68z m0 208l0-68-200-80 0 68z" horiz-adv-x="900" />

<glyph glyph-name="chart-bar-1" unicode="&#xe833;" d="M357 350v-286h-143v286h143z m214 286v-572h-142v572h142z m572-643v-72h-1143v858h71v-786h1072z m-357 500v-429h-143v429h143z m214 214v-643h-143v643h143z" horiz-adv-x="1142.9" />

<glyph glyph-name="menu" unicode="&#xe834;" d="M857 100v-71q0-15-10-25t-26-11h-785q-15 0-25 11t-11 25v71q0 15 11 25t25 11h785q15 0 26-11t10-25z m0 286v-72q0-14-10-25t-26-10h-785q-15 0-25 10t-11 25v72q0 14 11 25t25 10h785q15 0 26-10t10-25z m0 285v-71q0-14-10-25t-26-11h-785q-15 0-25 11t-11 25v71q0 15 11 26t25 10h785q15 0 26-10t10-26z" horiz-adv-x="857.1" />

<glyph glyph-name="mobile" unicode="&#xe835;" d="M480 840q42 0 71-29t29-71l0-780q0-40-29-70t-71-30l-380 0q-40 0-70 30t-30 70l0 780q0 42 30 71t70 29l380 0z m-190-940q30 0 50 15t20 35q0 22-20 36t-50 14q-28 0-49-15t-21-35 21-35 49-15z m210 150l0 660-420 0 0-660 420 0z" horiz-adv-x="580" />

<glyph glyph-name="monitor" unicode="&#xe836;" d="M900 790q42 0 71-30t29-70l0-550q0-42-29-77t-69-43l-218-44 86-38q50-28-20-28l-500 0q-98 0 32 52l36 14-220 44q-40 8-69 43t-29 77l0 550q0 40 30 70t70 30l800 0z m0-646l0 556-800 0 0-556 800 0z" horiz-adv-x="1000" />

<glyph glyph-name="ccw" unicode="&#xe837;" d="M532 736q170 0 289-120t119-290-119-290-289-120q-142 0-252 88l70 74q84-60 182-60 126 0 216 90t90 218-90 218-216 90q-124 0-214-87t-92-211l142 0-184-204-184 204 124 0q2 166 122 283t286 117z" horiz-adv-x="940" />

<glyph glyph-name="search" unicode="&#xe838;" d="M772 78q30-34 6-62l-46-46q-36-32-68 0l-190 190q-74-42-156-42-128 0-223 95t-95 223 90 219 218 91 224-95 96-223q0-88-46-162z m-678 358q0-88 68-156t156-68 151 63 63 153q0 88-68 155t-156 67-151-63-63-151z" horiz-adv-x="789" />

<glyph glyph-name="users" unicode="&#xe839;" d="M331 350q-90-3-148-71h-75q-45 0-77 22t-31 66q0 197 69 197 4 0 25-11t54-24 66-12q38 0 75 13-3-21-3-37 0-78 45-143z m598-356q0-66-41-105t-108-39h-488q-68 0-108 39t-41 105q0 30 2 58t8 61 14 61 24 54 35 45 48 30 62 11q6 0 24-12t41-26 59-27 76-12 75 12 60 27 41 26 24 12q34 0 62-11t47-30 35-45 24-54 15-61 8-61 2-58z m-572 713q0-59-42-101t-101-42-101 42-42 101 42 101 101 42 101-42 42-101z m393-214q0-89-63-152t-151-62-152 62-63 152 63 151 152 63 151-63 63-151z m321-126q0-43-31-66t-77-22h-75q-57 68-147 71 45 65 45 143 0 16-3 37 37-13 74-13 33 0 67 12t54 24 24 11q69 0 69-197z m-71 340q0-59-42-101t-101-42-101 42-42 101 42 101 101 42 101-42 42-101z" horiz-adv-x="1071.4" />

<glyph glyph-name="child" unicode="&#xe83a;" d="M663 544l-163-163v-460q0-25-18-44t-44-18-45 18-18 44v215h-36v-215q0-25-18-44t-44-18-44 18-19 44v460l-163 163q-15 16-15 38t15 38q17 16 39 16t37-16l128-127h205l127 127q16 16 38 16t38-16q16-16 16-38t-16-38z m-181 92q0-52-36-89t-89-36-88 36-37 89 37 88 88 37 89-37 36-88z" horiz-adv-x="714.3" />

<glyph glyph-name="male" unicode="&#xe83b;" d="M571 457v-232q0-22-15-38t-38-16-38 16-16 38v196h-35v-509q0-25-19-44t-44-18-44 18-18 44v259h-36v-259q0-25-19-44t-44-18-44 18-18 44v509h-36v-196q0-22-15-38t-38-16-38 16-16 38v232q0 45 31 76t76 31h357q45 0 76-31t31-76z m-160 250q0-52-37-88t-88-37-89 37-36 88 36 89 89 36 88-36 37-89z" horiz-adv-x="571.4" />

<glyph glyph-name="female" unicode="&#xe83c;" d="M714 261q0-23-15-38t-38-16q-29 0-45 24l-127 190h-25v-73l138-230q5-8 5-18 0-14-10-25t-26-11h-107v-152q0-25-18-44t-44-18h-89q-26 0-45 18t-18 44v152h-107q-15 0-25 11t-11 25q0 10 5 18l138 230v73h-25l-127-190q-16-24-44-24-23 0-38 16t-16 38q0 16 9 29l143 215q41 59 98 59h214q58 0 99-59l142-215q9-13 9-29z m-232 446q0-52-36-88t-89-37-88 37-37 88 37 89 88 36 89-36 36-89z" horiz-adv-x="714.3" />

<glyph glyph-name="sort" unicode="&#xe83d;" d="M500 850l244-422h-488l244 422z m244-578h-488l244-422 244 422z" horiz-adv-x="1000" />

<glyph glyph-name="ccw-1" unicode="&#xe83e;" d="M857 350q0-87-34-166t-91-137-137-92-166-34q-96 0-183 41t-147 114q-4 6-4 13t5 11l76 77q6 5 14 5 9-1 13-7 41-53 100-82t126-29q58 0 110 23t92 61 61 91 22 111-22 111-61 91-92 61-110 23q-55 0-105-20t-90-57l77-77q17-16 8-38-10-23-33-23h-250q-15 0-25 11t-11 25v250q0 24 22 33 22 10 39-8l72-72q60 57 137 88t159 31q87 0 166-34t137-92 91-137 34-166z" horiz-adv-x="857.1" />

<glyph glyph-name="cog" unicode="&#xe83f;" d="M571 350q0 59-41 101t-101 42-101-42-42-101 42-101 101-42 101 42 41 101z m286 61v-124q0-7-4-13t-11-7l-104-16q-10-30-21-51 19-27 59-77 6-6 6-13t-5-13q-15-21-55-61t-53-39q-7 0-14 5l-77 60q-25-13-51-21-9-76-16-104-4-16-20-16h-124q-8 0-14 5t-6 12l-16 103q-27 9-50 21l-79-60q-6-5-14-5-8 0-14 6-70 64-92 94-4 5-4 13 0 6 5 12 8 12 28 37t30 40q-15 28-23 55l-102 15q-7 1-11 7t-5 13v124q0 7 5 13t10 7l104 16q8 25 22 51-23 32-60 77-6 7-6 14 0 5 5 12 15 20 55 60t53 40q7 0 15-5l77-60q24 13 50 21 9 76 17 104 3 16 20 16h124q7 0 13-5t7-12l15-103q28-9 51-20l79 59q5 5 13 5 7 0 14-5 72-67 92-95 4-5 4-12 0-7-4-13-9-12-29-37t-30-40q15-28 23-54l102-16q7-1 12-7t4-13z" horiz-adv-x="857.1" />

<glyph glyph-name="cog-alt" unicode="&#xe840;" d="M500 350q0 59-42 101t-101 42-101-42-42-101 42-101 101-42 101 42 42 101z m429-286q0 29-22 51t-50 21-50-21-21-51q0-29 21-50t50-21 51 21 21 50z m0 572q0 29-22 50t-50 21-50-21-21-50q0-30 21-51t50-21 51 21 21 51z m-215-235v-103q0-6-4-11t-8-6l-87-14q-6-19-18-42 19-27 50-64 4-6 4-11 0-7-4-11-12-17-46-50t-43-33q-7 0-12 4l-64 50q-21-11-43-17-6-60-13-87-4-13-17-13h-104q-6 0-11 4t-5 10l-13 85q-19 6-42 18l-66-50q-4-4-11-4-6 0-12 4-80 75-80 90 0 5 4 10 5 8 23 30t26 34q-13 24-20 46l-85 13q-5 1-9 5t-4 11v104q0 5 4 10t9 6l86 14q7 19 18 42-19 27-50 64-4 6-4 11 0 7 4 12 12 16 46 49t44 33q6 0 12-4l64-50q19 10 43 18 6 60 13 86 3 13 16 13h104q6 0 11-4t6-10l13-85q19-6 42-17l65 49q5 4 12 4 6 0 11-4 81-75 81-90 0-4-4-10-7-9-24-30t-25-34q13-27 19-46l85-12q6-2 9-6t4-11z m357-298v-78q0-9-83-17-6-15-16-29 28-63 28-77 0-2-2-4-68-40-69-40-5 0-26 27t-29 37q-11-1-17-1t-17 1q-7-11-29-37t-25-27q-1 0-69 40-3 2-3 4 0 14 29 77-10 14-17 29-83 8-83 17v78q0 9 83 18 7 16 17 29-29 63-29 77 0 2 3 4 2 1 19 11t33 19 17 9q4 0 25-26t29-38q12 1 17 1t17-1q28 40 51 63l4 1q2 0 69-39 2-2 2-4 0-14-28-77 9-13 16-29 83-9 83-18z m0 572v-78q0-9-83-18-6-15-16-29 28-63 28-77 0-2-2-4-68-39-69-39-5 0-26 26t-29 38q-11-1-17-1t-17 1q-7-12-29-38t-25-26q-1 0-69 39-3 2-3 4 0 14 29 77-10 14-17 29-83 9-83 18v78q0 9 83 17 7 16 17 29-29 63-29 77 0 2 3 4 2 1 19 11t33 19 17 9q4 0 25-26t29-37q12 1 17 1t17-1q28 39 51 62l4 1q2 0 69-39 2-2 2-4 0-14-28-77 9-13 16-29 83-8 83-17z" horiz-adv-x="1071.4" />

<glyph glyph-name="wrench" unicode="&#xe841;" d="M214 29q0 14-10 25t-25 10-25-10-11-25 11-25 25-11 25 11 10 25z m360 234l-381-381q-21-20-50-20-29 0-51 20l-59 61q-21 20-21 50 0 29 21 51l380 380q22-55 64-97t97-64z m354 243q0-22-13-59-27-75-92-122t-144-46q-104 0-177 73t-73 177 73 176 177 74q32 0 67-10t60-26q9-6 9-15t-9-16l-163-94v-125l108-60q2 2 44 27t75 45 40 20q8 0 13-5t5-14z" horiz-adv-x="928.6" />

<glyph glyph-name="clock-1" unicode="&#xe842;" d="M500 546v-250q0-7-5-12t-13-5h-178q-8 0-13 5t-5 12v36q0 8 5 13t13 5h125v196q0 8 5 13t12 5h36q8 0 13-5t5-13z m232-196q0 83-41 152t-110 111-152 41-153-41-110-111-41-152 41-152 110-111 153-41 152 41 110 111 41 152z m125 0q0-117-57-215t-156-156-215-58-216 58-155 156-58 215 58 215 155 156 216 58 215-58 156-156 57-215z" horiz-adv-x="857.1" />

<glyph glyph-name="home-2" unicode="&#xe843;" d="M885 575l276 0 0-90-1161 0 0 90 548 0 0 173 337 0 0-173z m-777-134l943 0 0-489-568 0 0 301-170 0 0-301-205 0 0 489z m671-245l0 177-146 0 0-177 146 0z m191 0l0 177-146 0 0-177 146 0z" horiz-adv-x="1161" />

<glyph glyph-name="home-3" unicode="&#xe844;" d="M464 797l447-446-112 0 0-448-669 0 0 448-112 0z m224-781l0 401-224 157-223-157 0-401 168 0 0 168 112 0 0-168 167 0z" horiz-adv-x="928" />

<glyph glyph-name="reception" unicode="&#xe845;" d="M617 669h-467v-166h467v166z m-431-630h333v167h-333v-167z m114 230h567v167h-567v-167z m-275 462v-759h950v759h-950z m931-742h-912v722h912v-722z" horiz-adv-x="1000" />

<glyph glyph-name="tel" unicode="&#xe846;" d="M500 814c-258 0-464-206-464-464 0-258 208-467 467-467 258 0 466 209 466 467-2 258-211 464-469 464z m250-611l-83-100c-6-9-20-11-28-6 0 0-28 14-47 25-59 34-128 92-175 139-50 50-106 120-139 175-17 25-31 53-31 53-5 8-3 19 6 28l100 83c8 8 22 6 30 0l81-81c8-8 8-22 3-30l-34-42c-5-8-5-19 0-28 0 0 25-36 64-75 39-38 75-63 75-63 9-6 20-9 28 0l42 33c8 8 22 5 30-3l81-80c3-6 3-20-3-28z" horiz-adv-x="1000" />

<glyph glyph-name="cal" unicode="&#xe847;" d="M333 647c25 0 45 20 45 45v72c0 25-20 44-45 44-25 0-44-19-44-44v-70c0-27 19-47 44-47z m339 0c25 0 45 20 45 45v72c0 25-20 44-45 44-25 0-44-19-44-44v-70c-3-27 19-47 44-47z m159 97h-73v-52c0-48-39-84-86-84-47 0-86 39-86 84v52h-167v-52c0-48-38-84-86-84-47 0-86 39-86 84v52h-78c-72 0-127-55-127-127v-600c0-70 58-128 127-128h659c72 0 128 55 128 128v600c2 72-56 127-125 127z m63-727c0-36-30-64-66-64h-659c-36 0-66 28-66 64v522h791v-522z m-425 105h-116v-114h116v114z m0 178h-116v-114h116v114z m-180-178h-117v-114h117v114z m0 178h-117v-114h117v114z m539 178h-117v-114h117v114z m-181 0h-116v-114h116v114z m25-195l-33 25-64-80-36 30-28-33 72-56 89 114z m156 17h-117v-114h117v114z m-297-292h116v114h-116v-114z m-62 470h-116v-114h116v114z" horiz-adv-x="1000" />

<glyph glyph-name="pencil" unicode="&#xe848;" d="M933 650l-133 133c-36 36-92 36-128 0l-86-86-419-419c-17-17-31-39-39-61l-86-236c-9-25-3-53 16-70 20-19 48-25 70-17l236 87c22 8 44 22 61 38l397 398 0 0 22 22 87 86 0 0c38 33 38 92 2 125z m-719-417l417 417 75-75-425-422-75 75c2 0 5 3 8 5z m130-194l-150-56-61 61 53 150c0 0 0 3 0 3l158-158c3 0 3 0 0 0z m39 25c-2-3-5-3-5-6l-75 75 422 423 75-75-417-417z m506 503l-64-64-3-3-172 172 67 67c11 11 27 11 39 0l133-133c11-12 11-28 0-39l0 0z" horiz-adv-x="1000" />

<glyph glyph-name="shop" unicode="&#xe849;" d="M47 767v-834h906v834h-906z m564-53h117v-164c0-17-6-31-17-42-11-11-25-16-42-16-16 0-30 5-41 16-11 11-17 25-17 42v164z m-169 0h116v-164c0-17-5-31-16-42-11-11-25-16-42-16-17 0-31 5-42 16-11 11-16 25-16 42v164z m-173 0h120v-164c0-17-6-31-17-42-11-11-25-16-41-16-17 0-31 5-42 16-11 11-17 25-17 42v164z m-169 0h117v-164c0-17-6-31-17-42-11-11-25-16-42-16-16 0-30 5-41 16-11 11-17 25-17 42v164z m800-728h-253v170h-294v-170h-253v470c17-12 36-17 58-17 34 0 64 17 86 39 20-25 50-39 87-39 33 0 63 17 86 39 19-25 50-39 86-39 33 0 64 17 86 39 19-25 50-39 86-39 33 0 64 17 86 39 20-25 50-39 86-39 22 0 42 5 59 17v-470z m0 564c0-17-6-31-17-42-11-11-25-16-41-16-17 0-31 5-42 16-11 11-17 25-17 42v164h117v-164z m-664-283h89v102h-89v-102z m439 0h89v102h-89v-102z m-219 0h88v102h-88v-102z" horiz-adv-x="1000" />

<glyph glyph-name="del" unicode="&#xe84a;" d="M850 703c0 0 6-3-83 22-81 25-156 28-156 28l-5 36c-3 25-25 44-50 44h-117c-25 0-45-19-50-44l-6-36c0 0-75-6-155-28-89-28-84-22-84-22-13-6-27-22-27-45v-30h766v30c0 23-14 39-33 45z m-669-750c5-50 47-89 100-89h441c50 0 95 39 100 89l50 622h-741l50-622z m483 486c0 17 14 28 30 28 17 0 28-14 28-31l-28-455c0-17-13-28-30-28-17 0-28 14-28 30l28 456z m-192-3c0 17 14 28 28 28 17 0 28-14 28-28v-455c0-17-14-28-28-28-17 0-28 14-28 28v455z m-166 28c16 0 30-11 30-28l28-455c0-17-11-31-28-31-17 0-30 11-30 28l-28 455c0 17 11 31 28 31z" horiz-adv-x="1000" />

<glyph glyph-name="schedule" unicode="&#xe84b;" d="M897 786c-22 22-53 36-86 36h-575c-33 0-64-14-86-36-22-22-36-53-36-86v-8h-28c-11 0-19-9-19-20 0-11 8-19 19-19h28v-120h-28c-11 0-19-8-19-19 0-11 8-20 19-20h28v-119h-28c-11 0-19-8-19-19 0-12 8-20 19-20h28v-119h-28c-11 0-19-9-19-20 0-11 8-19 19-19h28v-120h-28c-11 0-19-8-19-19 0-11 8-20 19-20h28v-16c0-34 14-64 36-86 22-23 53-36 86-36h575c33 0 64 13 86 36 22 22 36 52 36 86v697c0 33-14 64-36 86z m-569-853h-92c-19 0-36 9-47 20-11 11-20 28-20 47v17h42c8-11 20-20 33-20 23 0 39 17 39 39 0 22-16 39-39 39-13 0-27-8-36-19h-41v119h41c9-11 23-19 36-19 23 0 39 16 39 38s-16 39-39 39c-13 0-27-8-36-19h-41v119h41c9-11 20-19 34-19 22 0 39 17 39 39 0 22-17 39-39 39-14 0-28-9-36-20h-39v120h41c9-11 20-20 36-20 23 0 39 17 39 39 0 22-16 39-39 39-13 0-27-8-36-19h-41v119h41c9-11 20-19 36-19 23 0 39 16 39 38 3 23-16 42-39 42-13 0-27-8-36-19h-41v8c0 19 8 36 19 47 14 11 31 20 50 20h92v-834z m550 67c0-19-9-36-20-47-11-11-30-20-47-20h-464v834h464c20 0 36-9 47-20 11-11 20-28 20-47v-700z m-450 592h355v19h-355v-19z m0-125h355v19h-355v-19z m0-128h355v19h-355v-19z m0-128h355v20h-355v-20z m0-128h355v20h-355v-20z" horiz-adv-x="1000" />

<glyph glyph-name="download-1" unicode="&#xe84c;" d="M478 253c5-9 14-11 22-11 8 0 17 5 22 11l159 214c5 8 8 16 5 22-3 5-11 8-19 8h-61c-17 0-31 14-31 31v175c0 19-17 36-36 36h-81c-19 0-36-17-36-36v-175c0-17-14-31-30-31h-59c-11 0-16-3-19-8-3-6 0-14 5-22l159-214z m358 28v-200h-672v200h-120v-275c0-25 20-48 45-48h819c25 0 45 20 45 48v275h-117z" horiz-adv-x="1000" />

<glyph glyph-name="exit" unicode="&#xe84d;" d="M486-139c-14 0-28 0-39 0 0 72 0 142 0 222-66 0-122 0-178 0-77 0-113 39-113 117 0 175 0 350 0 525 0 78 33 114 113 114 156-3 312-3 467 0 81 3 111-33 111-114-3-169-3-336 0-506 3-72-25-113-83-152-97-64-186-136-278-206z m222 900c-2 8-2 14-5 22-145 0-289 3-434-2-22 0-55-50-58-75-5-123-5-245-3-367 6-217-50-200 209-197 8 0 16 8 30 14 0 75 9 152-3 225-19 147 20 255 164 316 39 11 67 42 100 64z" horiz-adv-x="1000" />

<glyph glyph-name="calendar-1" unicode="&#xe84e;" d="M800 700q42 0 71-29t29-71l0-600q0-40-29-70t-71-30l-700 0q-40 0-70 30t-30 70l0 600q0 42 30 71t70 29l46 0 0-100 160 0 0 100 290 0 0-100 160 0 0 100 44 0z m0-700l0 400-700 0 0-400 700 0z m-540 800l0-170-70 0 0 170 70 0z m450 0l0-170-70 0 0 170 70 0z" horiz-adv-x="900" />

<glyph glyph-name="calendar-2" unicode="&#xe84f;" d="M911-97l-893 0 0 782 112 0 0-669 669 0 0 669 112 0 0-782z m-725 448l0 111 112 0 0-111-112 0z m223 0l0 111 112 0 0-111-112 0z m223 0l0 111 112 0 0-111-112 0z m-446-224l0 112 112 0 0-112-112 0z m223 0l0 112 112 0 0-112-112 0z m223 0l0 112 112 0z m-391 503l0 112q0 23 17 39t40 16 40-16 15-39l0-112q0-24-16-40t-39-16q-24 0-40 16t-17 40z m335 0l0 112q0 23 16 39t40 16q23 0 40-16t16-39l0-112q0-24-16-40t-39-16-40 16-17 40z" horiz-adv-x="928" />

<glyph glyph-name="calendar-inv" unicode="&#xe850;" d="M744 685l167 0 0-782-893 0 0 782 168 0 0-56q0-46 33-79t79-33 78 33 33 79l0 56 112 0 0-56q0-46 33-79t79-33 78 33 33 79l0 56z m-446-669l0 111-112 0 0-111 112 0z m0 223l0 112-112 0 0-112 112 0z m223-223l0 111-112 0 0-111 112 0z m0 223l0 112-112 0 0-112 112 0z m111-223l112 111-112 0 0-111z m112 223l0 112-112 0 0-112 112 0z m-503 391l0 112q0 23 17 39t40 16 40-16 15-39l0-112q0-24-16-40t-39-16q-24 0-40 16t-17 40z m335 0l0 112q0 23 16 39t40 16q23 0 40-16t16-39l0-112q0-24-16-40t-39-16-40 16-17 40z" horiz-adv-x="928" />

<glyph glyph-name="globe" unicode="&#xe851;" d="M406 755c227 0 405-180 405-404 0-226-178-406-405-406-225 0-406 180-406 406 0 224 181 404 406 404z m23-734c65 0 100 113 116 169-39-4-77-6-116-7l0-162z m-129 82c19-45 48-82 81-82l0 162c-38 1-77 3-115 7 8-32 19-61 34-87z m-222 202c16-19 57-44 132-57-5 31-7 66-7 100 0 25 1 45 3 68-57 12-91 20-117 32-9-30-14-64-14-97 0-16 0-32 3-46z m170 43c0-37 2-75 7-109 43-8 84-11 126-13l0 177c-45 1-90 3-132 8 0-22-1-41-1-63z m131 331c-56-23-104-110-124-225 41-4 84-6 126-8l0 233-2 0z m82-18c-11 8-23 18-32 18l0-233c44 2 85 4 127 8-16 90-52 169-95 207z m-32-435c44 2 85 5 126 12 6 33 8 72 8 110 0 22 0 41-2 62-42-4-86-6-132-7l0-177z m176 190c3-23 3-43 3-68 0-34-3-70-7-102 130 22 135 52 135 105 0 32-5 65-15 95-23-10-66-25-116-30z m99 74c-35 78-101 140-179 168 38-49 61-118 74-199 67 12 95 24 105 31z m-531 93c-29-27-50-59-65-92 11-10 30-11 103-31 14 80 38 146 75 196-42-20-80-37-113-73z m0-465c30-33 67-55 106-72-29 40-48 92-60 152-50 11-95 25-125 41 19-46 42-88 79-121z m466 0c35 32 59 72 75 116-33-15-75-28-121-38-14-60-32-108-62-150 39 17 78 39 108 72z" horiz-adv-x="811" />

<glyph glyph-name="globe-1" unicode="&#xe852;" d="M480 830q200 0 340-141t140-339q0-200-140-340t-340-140q-198 0-339 140t-141 340q0 198 141 339t339 141z m410-480q0 132-78 239t-202 149q-18-24-16-32 4-38 18-51t30-7l32 12t20 2q22-24 0-47t-45-56-1-77q34-64 96-64 28-2 43-36t17-66q10-80-14-140-22-44 14-76 86 112 86 250z m-466 404q-112-14-199-84t-127-174q6 0 22-2t28-3 26-4 24-8 12-13q4-12-14-45t-18-61q0-30 38-56t38-46q0-28 8-68t8-44q0-12 36-54t52-42q10 0 11 22t-2 54-3 40q0 32 14 74 12 42 59 70t55 46q16 34 9 61t-17 43-34 28-41 17-37 9-22 4q-16 6-42 7t-36-3-27 11-17 29q0 10 15 27t35 37 28 30q8 14 17 21t22 16 27 21q4 4 25 17t27 23z m-72-794q66-20 128-20 128 0 226 68-26 44-118 34-24-2-65-17t-47-17q-74-16-76-16-12-2-26-14t-22-18z" horiz-adv-x="960" />

<glyph glyph-name="cancel-1" unicode="&#xe853;" d="M452 194q18-18 18-43t-18-43q-18-16-43-16t-43 16l-132 152-132-152q-18-16-43-16t-43 16q-16 18-16 43t16 43l138 156-138 158q-16 18-16 43t16 43q18 16 43 16t43-16l132-152 132 152q18 16 43 16t43-16q18-18 18-43t-18-43l-138-158z" horiz-adv-x="470" />

<glyph glyph-name="credit-card" unicode="&#xe854;" d="M900 700q42 0 71-30t29-70l0-500q0-42-29-71t-71-29l-800 0q-40 0-70 29t-30 71l0 500q0 40 30 70t70 30l800 0z m0-600l0 300-800 0 0-300 800 0z m0 450l0 50-800 0 0-50 800 0z m-700-256l30 0 0-30-30 0 0 30z m180-60l30 0 0 30 30 0 0 30 60 0 0-30-30 0 0-30-30 0 0-30-60 0 0 30z m120-30l-30 0 0 30 30 0 0-30z m-150 0l-60 0 0 30 60 0 0-30z m30 60l0-30-30 0 0 60 60 0 0-30-30 0z m-120-30l0-30-60 0 0 30 30 0 0 30 30 0 0 30 60 0 0-30-30 0 0-30-30 0z" horiz-adv-x="1000" />

<glyph glyph-name="vcard" unicode="&#xe855;" d="M900 750q42 0 71-29t29-71l0-600q0-40-29-70t-71-30l-800 0q-40 0-70 30t-30 70l0 600q0 42 30 71t70 29l800 0z m0-700l0 600-800 0 0-600 800 0z m-450 196l0-90-250 0 0 90 250 0z m0 150l0-90-250 0 0 90 250 0z m0 150l0-90-250 0 0 90 250 0z m346-320l4-70-250 0q0 70 6 70 84 22 84 66 0 16-27 56t-27 88q0 110 90 110t90-110q0-48-28-88t-28-56q0-20 21-36t43-22z" horiz-adv-x="1000" />

<glyph glyph-name="vcard-1" unicode="&#xe856;" d="M990-66l-834 0q-65 0-110 46t-46 110l0 520q0 65 46 111t110 46l834 0q65 0 111-46t45-111l0-520q0-65-45-110t-111-46z m-834 729q-21 0-37-16t-15-37l0-520q0-21 15-37t37-15l834 0q21 0 36 15t15 37l0 520q0 22-15 37t-36 16l-834 0z m313-469l-209 0q-21 0-36 16t-15 37 15 36 36 15l209 0q21 0 37-15t15-36-15-37-37-16z m0 209l-209 0q-21 0-36 15t-15 36 15 37 36 16l209 0q21 0 37-16t15-37-15-36-37-15z m209 25q0 105 103 105t104-105q0-104-104-104t-103 104z m103-148q57 0 93-22t37-53q0-15-37-26t-93-11q-58 0-94 11t-36 26q0 30 36 53t94 22z" horiz-adv-x="1146" />

<glyph glyph-name="credit-card-1" unicode="&#xe857;" d="M729 688q65 0 110-46t46-110l0-364q0-65-46-111t-110-45l-573 0q-65 0-110 45t-46 111l0 364q0 65 46 110t110 46l573 0z m52-520l0 208-677 0 0-208q0-21 15-37t37-15l573 0q21 0 37 15t15 37z m0 313l0 51q0 21-15 37t-37 15l-573 0q-21 0-37-15t-15-37l0-51 677 0z m-208-262q-25 0-25 27t25 26l105 0q25 0 25-26t-25-27l-105 0z" horiz-adv-x="885" />

<glyph glyph-name="clipboard" unicode="&#xe858;" d="M0-150l0 904 225 0 0-64-161 0 0-774 579 0 0 774-161 0 0 64 225 0 0-904-707 0z m129 129l0 31 31 0 0-31-31 0z m0 121l0 31 31 0 0-31-31 0z m0 121l0 31 31 0 0-31-31 0z m0 121l0 32 31 0 0-32-31 0z m0 121l0 32 31 0 0-32-31 0z m0 96l0 94 129 0 0 97q0 41 27 71t69 29 69-30 28-70q0-56-2-97l129 0 0-94-449 0z m96-582l0 33 353 0 0-33-353 0z m0 121l0 33 353 0 0-33-353 0z m0 121l0 33 353 0 0-33-353 0z m0 121l0 34 353 0 0-34-353 0z m0 121l0 34 353 0 0-34-353 0z m97 260q0-14 9-22t23-9 22 9 9 22-9 24-22 9-23-9-9-24z" horiz-adv-x="707" />

<glyph glyph-name="edit" unicode="&#xe859;" d="M90 589l0-593 444 0 0 262 90 101 0-453-624 0 0 760 541 0-75-77-376 0z m749 180c35-34 32-88-3-124l-57-56 17 75-63 64-74-17 56 57c35 35 90 35 124 1z m-219-99c0 3 65 20 75 23l1 1 67-69c-4 0-23-75-23-75l-371-384-159-36-2 1 41 158z m-247-422l-45 46-35-6-23-22-10-40 46-45 39 9 23 23z" horiz-adv-x="864" />

<glyph glyph-name="flag-filled" unicode="&#xe85a;" d="M640 693q25 25 57 11t32-47l0-418q0-21-15-36-80-80-193-80t-193 80q-47 46-110 50t-114-36l0-238q0-21-15-37t-36-15-37 15-16 37l0 678q0 21 15 36 80 80 193 80t193-80q50-50 120-50t119 50z" horiz-adv-x="729" />

<glyph glyph-name="data_1" unicode="&#xe85b;" d="M499 851c-276 0-500-224-500-500s224-500 500-500 500 224 500 500-224 500-500 500z m179-773h-345v106h116v310h-101v81c59 11 97 25 135 49h97v-440h98v-106z" horiz-adv-x="1000" />

<glyph glyph-name="data_365" unicode="&#xe85c;" d="M501-149c-276 0-500 224-500 500s224 500 500 500 500-224 500-500-224-500-500-500z m-141 599c0 73-51 112-129 112-44 0-81-19-116-50l45-60c23 21 42 34 67 34 28 0 43-15 43-43 0-32-20-54-84-54v-68c79 0 96-21 96-56 0-31-23-46-58-46-29 0-55 16-78 39l-41-61c27-35 69-57 128-57 75 0 139 42 139 118 0 53-31 86-73 99v3c41 18 61 49 61 90z m180 35c20 0 43-15 56-29l47 58c-24 26-60 48-109 48-78 0-149-67-149-214 0-149 69-208 140-208 66 0 123 51 123 138 0 88-48 128-110 128-21 0-53-14-71-40 3 89 34 119 73 119z m352 70h-210l-9-202 39-28c22 16 32 20 53 20 32 0 54-22 54-63 0-42-22-63-58-63-30 0-56 17-77 39l-41-62c30-31 71-56 131-56 72 0 135 53 135 144 0 89-53 129-117 129-14 0-25-2-38-8l5 69h133v81z m-371-218c25 0 45-14 45-59 0-46-20-65-43-65-24 0-47 20-55 88 15 27 35 36 53 36z" horiz-adv-x="1000" />

<glyph glyph-name="graph" unicode="&#xe85d;" d="M210 47h158c11 0 20 8 20 18v234c0 10-9 19-20 19h-158c-11 0-20-9-20-19v-234c0-10 9-18 20-18z m287 343c-11 0-20-9-20-19v-306c0-10 9-18 20-18h158c11 0 20 8 20 18v306c0 10-9 19-20 19h-158z m268 113v-438c0-10 8-18 19-18h158c11 0 20 8 20 18v438c0 10-9 18-20 18h-158c-11 0-19-8-19-18z m204-541h-857v857 32h-111v-32-857-79-32h32 79 857 32v111h-32z m-530 657l162-162 233 232 54-53 36 215-216-36 53-53-160-159-162 162-249-248 74-73 175 175z" horiz-adv-x="1000" />

<glyph glyph-name="calendar-4" unicode="&#xe85e;" d="M833 17h-166v166h166v-166z m-250 416h-166v-166h166v166z m250 0h-166v-166h166v166z m-500-250h-166v-166h166v166z m250 0h-166v-166h166v166z m-250 250h-166v-166h166v166z m667 334v-917h-1000v917h125v-42c0-46 37-83 83-83s84 37 84 83v42h416v-42c0-46 38-83 84-83s83 37 83 83v42h125z m-83-250h-834v-584h834v584z m-84 291c0 23-18 42-41 42s-42-19-42-42v-83c0-23 19-42 42-42s41 19 41 42v83z m-583-83c0-23-19-42-42-42s-41 19-41 42v83c0 23 18 42 41 42s42-19 42-42v-83z" horiz-adv-x="1000" />

<glyph glyph-name="chart-11" unicode="&#xe85f;" d="M998 308c-21-256-236-458-498-458-276 0-500 224-500 500 0 262 202 477 458 498v-540h540z m-456 84h456c-20 243-213 436-456 456v-456z" horiz-adv-x="1000" />

<glyph glyph-name="customer_entry" unicode="&#xe860;" d="M909 628c0 29-20 49-49 49h-720c-29 0-49-20-49-49v-482h818v482z m-82-401h-654v368h654v-368z m-245-122c0-13-8-21-20-21h-123c-13 0-21 8-21 21h-409v-33c0-29 20-49 49-49h884c29 0 49 20 49 49v33h-409z m-82 293c19 0 35 7 49 21 13 13 20 29 20 48s-7 36-20 49c-14 14-30 21-49 21s-35-7-49-21c-13-13-20-29-20-49s7-35 20-48c14-14 30-21 49-21z m-77-138h154c10 0 19 5 27 14s11 21 11 34c0 10 0 20-1 29-1 9-3 18-6 27-2 9-6 17-10 24-4 6-10 12-17 16-7 4-15 6-24 6-16-15-35-23-57-23-21 0-40 8-56 23-9 0-17-2-24-6-7-4-13-10-17-16-4-7-8-15-10-24-3-9-5-18-6-27-1-9-2-19-2-29 0-13 4-24 12-34s16-14 26-14z" horiz-adv-x="1000" />

<glyph glyph-name="data_30" unicode="&#xe861;" d="M499 851c-276 0-500-224-500-500s224-500 500-500 500 224 500 500-224 500-500 500z m-191-741c-73 0-125 25-159 65l51 70c28-27 61-45 97-45 43 0 71 18 71 53 0 40-21 64-118 64v78c79 0 104 24 104 61 0 32-19 50-53 50-31 0-55-15-83-39l-57 68c44 36 90 57 145 57 96 0 159-44 159-128 0-46-25-82-75-102v-3c52-16 90-53 90-113 0-87-79-136-172-136z m381 0c-98 0-164 84-164 244s66 238 164 238 165-80 165-238c0-160-67-244-165-244z m0 397c-33 0-59-26-59-153 0-128 26-158 59-158 33 0 60 30 60 158 0 127-27 153-60 153z" horiz-adv-x="1000" />

<glyph glyph-name="email-2" unicode="&#xe862;" d="M0 725v-750h1000v750h-1000z m276-330l-193-238v394l193-156z m-173 247h794l-397-322-397 322z m238-300l159-129 160 129 233-284h-782l230 284z m383 53l193 156v-390l-193 234z" horiz-adv-x="1000" />

<glyph glyph-name="gama" unicode="&#xe863;" d="M937 246c-9 20-21 37-33 52-6 7-13 14-19 20 1 8 0 16-6 22l0 0c0 0-1 3-1 6-1 4-1 9-1 15 0 15 2 36 2 61 0 30-3 67-15 104-13 38-35 78-74 113-45 43-97 66-148 79-2 0-4 0-5 1 9 13 14 30 14 47 0 47-38 85-85 85-27 0-51-13-66-33-16 20-40 33-67 33-47 0-85-38-85-85 0-17 6-34 15-47-2-1-3-1-5-1-51-13-104-36-149-79-38-35-60-75-73-113-12-37-15-74-15-104 0-25 2-46 2-61 0-8-1-14-1-18-1-2-1-3-1-3l0 0 0 0c-6-6-7-14-6-22-2-2-4-4-6-6-17-18-34-39-45-66-12-28-19-62-19-107 0-47 12-89 34-125 34-55 90-96 162-122 72-27 160-41 259-41 133 0 245 24 326 72 40 24 73 54 95 91 22 36 34 78 34 125 0 45-7 79-18 107z m-370 554c18 0 34-15 34-34 0-19-16-34-34-34-19 0-34 15-34 34 0 19 15 34 34 34z m-134 0c19 0 34-15 34-34 0-19-15-34-34-34-18 0-34 15-34 34 0 19 16 34 34 34z m394-417c-13 18-25 39-36 67-24 62-59 106-108 133-48 27-108 37-183 37s-135-10-184-37c-48-27-83-71-107-133-11-28-23-50-36-68 0 13-1 26-1 40 0 28 2 58 13 89 10 30 27 61 59 91 37 35 81 55 126 66 45 11 91 13 130 13 39 0 85-2 129-13 45-11 89-31 127-66 31-30 49-61 59-91 10-31 13-61 13-89 0-14-1-27-1-39z" horiz-adv-x="1000" />

<glyph glyph-name="laptop-6" unicode="&#xe864;" d="M909 146v482c0 29-20 49-49 49h-720c-29 0-49-20-49-49v-482h818z m-736 449h654v-368h-654v368z m818-490v-33c0-29-20-49-49-49h-884c-29 0-49 20-49 49v33h409c0-13 8-21 21-21h123c12 0 20 8 20 21h409z" horiz-adv-x="1000" />

<glyph glyph-name="note" unicode="&#xe865;" d="M977 763c0 0-88 0-194 0-57 0-114-12-167-35-43-18-83-44-115-75-32 31-72 57-115 75-52 23-110 35-166 35h-137c-35 0-57 0-57 0h-25v-697h24c0 0 22 0 57 0h137c50 0 101-11 147-31 44-19 85-47 112-76 2-2 18-20 18-20 1-1 3-2 5-2 2 0 4 1 5 2 0 0 16 18 18 20 27 29 68 57 111 76 47 20 98 31 148 31 106 0 193 0 193 0h25v697h-24z m-500-737c-27 22-58 40-91 54-52 22-110 35-167 35h-169v599h169c50 0 101-11 147-31 44-18 82-44 110-75v-582z m475 89h-169c-57 0-114-13-167-35-33-14-63-32-90-54v582c28 31 67 57 110 75 46 20 97 31 147 31h169v-599z m-803 474v-28h80c59 0 120-15 171-40v31c-52 23-112 37-171 37l-80 0 0 0z m0-96v-28h80c59 0 120-14 171-40v31c-52 24-112 37-171 37h-80z m0-95v-28h80c59 0 120-15 171-40v30c-52 24-112 37-171 38l-80 0 0 0z m0-96v-28h80c59 0 120-15 171-40v31c-52 23-112 37-171 37h-80z m453 250v-31c51 25 112 40 171 40h80v28h-80c-59 0-119-14-171-37z m0-96v-31c51 26 112 40 171 40h80v28h-80c-59 0-119-13-171-37z m0-96v-30c51 25 112 40 171 40h80v28h-80c-59-1-119-14-171-38z m0-95v-31c51 25 112 40 171 40h80v28h-80c-59 0-119-14-171-37z" horiz-adv-x="1000" />

<glyph glyph-name="point" unicode="&#xe866;" d="M500 850c-276 0-500-224-500-500 0-276 224-500 500-500 276 0 500 224 500 500 0 276-224 500-500 500z m-156-237h192c120 0 219-42 219-177 0-130-100-187-216-187h-64v-181h-131v545z m189-261c64 0 94 30 94 84 0 55-35 74-98 74h-53v-158h57z" horiz-adv-x="1000" />

<glyph glyph-name="yen_2" unicode="&#xe867;" d="M657 382h-108l-12-18v-43h120v0-52-9h-120v-93h-74v93h-120v9 52 0h120v43l-12 18h-108v53h75l-63 98h62l83-129 83 129h63l-64-98h75v-53z m-157 343c207 0 375-168 375-375s-168-375-375-375-375 168-375 375 168 375 375 375m0 125c-276 0-500-224-500-500s224-500 500-500 500 224 500 500-224 500-500 500z" horiz-adv-x="1000" />

<glyph glyph-name="user-1" unicode="&#xe868;" d="M736 128q204-72 204-122l0-106-940 0 0 106q0 50 204 122 94 34 128 69t34 95q0 22-22 49t-32 73q-2 12-9 18t-14 8-14 17-9 43q0 16 5 26t9 12l4 4q-8 50-12 88-4 54 41 112t157 58 158-58 40-112l-12-88q18-8 18-42-2-28-9-43t-14-17-14-8-9-18q-8-48-31-74t-23-48q0-60 35-95t127-69z" horiz-adv-x="940" />

<glyph glyph-name="user-add" unicode="&#xe869;" d="M620 128q180-64 180-122l0-106-800 0 0 202q36 14 82 26 94 34 129 69t35 95q0 22-23 48t-31 74q-2 12-23 25t-25 61q0 16 5 26t9 12l4 4q-8 50-12 88-6 54 40 112t160 58 160-58 42-112l-14-88q18-8 18-42-2-28-9-43t-14-17-14-8-9-18q-10-46-33-73t-23-49q0-60 36-95t130-69z m230 272l150 0 0-100-150 0 0-150-100 0 0 150-150 0 0 100 150 0 0 150 100 0 0-150z" horiz-adv-x="1000" />

<glyph glyph-name="coupon" unicode="&#xe86a;" d="M953 57h-666-5-48-185-48v48 492 48h48 185 48 5 666 48v-48-492-48h-48z m0 540h-666c0-15-12-26-26-26-15 0-27 11-27 26h-185v-492h185c0 15 12 26 27 26 14 0 26-11 26-26h666v492z m-692-420c-15 0-27 12-27 26 0 15 12 27 27 27 14 0 26-12 26-27 0-14-12-26-26-26z m0 98c-15 0-27 12-27 27 0 14 12 26 27 26 14 0 26-12 26-26 0-15-12-27-26-27z m0 99c-15 0-27 12-27 26 0 15 12 27 27 27 14 0 26-12 26-27 0-14-12-26-26-26z m0 98c-15 0-27 12-27 27 0 14 12 26 27 26 14 0 26-12 26-26 0-15-12-27-26-27z" horiz-adv-x="1000" />

<glyph glyph-name="enquete" unicode="&#xe86b;" d="M868-101c-10-15-25-27-42-34-11-5-24-8-37-8h-568c-20 0-38 6-53 16-15 11-27 25-35 42-4 11-7 24-7 37v680c0 20 6 38 16 53 10 15 25 27 42 35 11 4 24 7 37 7h82v14h118c0 4 0 8 0 12 0 46 38 84 84 84s85-38 85-84c0-4 0-8-1-12h119v-14h81c20 0 38-6 53-16 15-10 27-25 35-42 4-11 7-24 7-37v-680c0-19-6-38-16-53z m-363 885c-17 0-32-14-32-31 0-4 1-8 3-12h58c2 4 2 8 2 12 0 17-14 31-31 31z m323-152c0 8-3 15-7 22-4 6-10 11-17 13-5 2-10 3-15 3h-82v-11c0-22-18-40-40-40h-324c-22 0-40 18-40 40v11h-82c-8 0-15-2-22-6-6-4-11-10-13-17-2-5-3-10-3-15v-680c0-8 2-16 6-22 4-6 10-11 17-14 5-2 10-3 15-3h568c8 0 15 3 22 7 6 4 11 10 13 17 2 4 3 9 3 15v680z m-381-479h249v-61h-249v61z m0 179h249v-61h-249v61z m0 179h249v-61h-249v61z m-133-358h60v-61h-60v61z m0 179h60v-61h-60v61z m0 179h60v-61h-60v61z" horiz-adv-x="1000" />

<glyph glyph-name="counseling" unicode="&#xe86c;" d="M940 379l-26-27-91 91 27 26c17 17 45 17 62 0l28-28c18-17 18-45 0-62z m-200 251c0 1-1 2-2 2h-57c3 10 5 20 5 31v50c0 4-1 8-1 12h45c54 0 98-44 98-99v-116l-88-89v209z m-164-32h-234c-35 0-64 29-64 65v50c0 36 29 65 64 65h52c8 29 34 50 65 50 31 0 57-21 66-50h51c36 0 65-29 65-65v-50c0-36-29-65-65-65z m-117 185c-13 0-24-11-24-24 0-14 11-25 24-25 14 0 25 11 25 25 0 13-11 24-25 24z m-88-258l21-22-59-59-22-22-59 60 22 21 37-38 60 60z m-60-258l-59 60 22 21 37-38 60 60 21-22-59-59-22-22z m0-155l-59 60 22 21 37-37 60 59 21-22-81-81z m265-8v90l223 224 90-91-223-223h-90z m-338 528h-57c-1 0-2-1-2-2v-647c0-1 1-2 2-2h557c1 0 2 1 2 2v143 0h11l77 77v-236c0-54-44-98-98-98h-541c-54 0-98 44-98 98v659c0 55 44 99 98 99h45c-1-4-1-8-1-12v-50c0-11 2-21 5-31z" horiz-adv-x="1000" />

<glyph glyph-name="catalog" unicode="&#xe86d;" d="M858 101v-201h0v0l-1 0h-201l4 0h-335l0 0-22 0h-136v877h0 3 688v-1 0-88l0 0v-68l0 0 0-23v-143l0 0v-206l0 0 0-11v-68l0 0v-36l0 0 0-32z m-67-133v176 35 80 36 170 166 67 12h-71-265-221v-743h101 68 388v1z m-479 163v35h0 0 56 67 139v-35h-144-68-50z m66 98h-67v35h1 0 71 68 263v-35h-269-67z m295 149v-36h-100v36h1 0 99z m-99 54v30h5 135v-35h-140v5z m0 114h140v-35h-140v35z m-61-204h-50-67-56l0 1h0l27 27 39 40 81 81 26 27v-1l0 0 0-72v-103z m-56 176l-40-40-105-107v175h116 57l0 0h0l-28-28z" horiz-adv-x="1000" />

<glyph glyph-name="staff_web" unicode="&#xe86e;" d="M715 437v-174c0-11-4-20-12-28-8-8-17-12-28-12-11 0-21 4-28 12-8 8-12 17-12 28v147h-27v-380c0-13-5-24-14-34-9-9-20-13-33-13s-24 4-33 13c-9 10-14 21-14 34v193h-26v-193c0-13-5-24-14-34-9-9-20-13-33-13-13 0-24 4-33 13-10 10-14 21-14 34v380h-27v-147c0-11-4-20-12-28-7-8-17-12-28-12-11 0-21 4-28 12-8 8-12 17-12 28v174c0 22 8 41 23 57 16 15 35 23 57 23h268c22 0 41-8 56-23 16-16 24-35 24-57z m-120 187c0-26-10-48-28-67-18-18-40-27-66-27s-48 9-66 27c-18 19-28 41-28 67 0 25 10 48 28 66 18 18 40 27 66 27s48-9 66-27c18-18 28-40 28-66z m-583-274c0-269 219-488 488-488s488 219 488 488-219 488-488 488-488-219-488-488z m39 0c0 248 201 449 449 449s449-201 449-449-201-449-449-449-449 201-449 449z" horiz-adv-x="1000" />

<glyph glyph-name="help-1" unicode="&#xe86f;" d="M494 740q86-62 86-184 0-64-42-124-12-20-88-80l-46-30q-40-34-48-60-6-16-8-44 0-14-16-14l-128 0q-16 0-16 12 4 98 28 124 16 22 48 48t56 42l24 14q22 16 34 34 28 44 28 70 0 40-26 78-28 36-92 36-68 0-94-44-28-42-28-92l-166 0q6 162 114 232 70 42 166 42 130 0 214-60z m-216-636q44 0 73-30t27-74q-2-46-32-73t-74-25q-44 0-73 29t-27 75 32 73 74 25z" horiz-adv-x="580" />

<glyph glyph-name="help-circled" unicode="&#xe870;" d="M454 810q190 2 326-130t140-322q2-190-131-327t-323-141q-190-2-327 131t-139 323q-4 190 130 327t324 139z m-2-740q30 0 49 19t19 47q2 30-17 49t-49 19l-2 0q-28 0-47-18t-21-46q0-30 19-49t47-21l2 0z m166 328q26 34 26 78 0 78-54 116-52 38-134 38-64 0-104-26-68-42-72-146l0-4 110 0 0 4q0 26 16 54 16 24 54 24 40 0 52-20 16-20 16-44 0-18-16-40-8-12-20-20l-6-4q-6-4-16-11t-20-15-21-17-17-17q-14-20-18-78l0-8 108 0 0 4q0 12 4 28 6 20 28 36l28 18q46 34 56 50z" horiz-adv-x="920" />

<glyph glyph-name="clipboard-1" unicode="&#xe871;" d="M630 750q28 0 49-21t21-49l0-760q0-30-21-50t-49-20l-560 0q-28 0-49 20t-21 50l0 760q0 28 21 49t49 21l60-150 440 0z m-100-100l-360 0-44 100 108 0 36 100 160 0 36-100 110 0z" horiz-adv-x="700" />

<glyph glyph-name="bookmark" unicode="&#xe872;" d="M310 800q22 0 36-15t14-35l0-850-180 180-180-180 0 850q0 50 40 50l270 0z" horiz-adv-x="360" />

<glyph glyph-name="lamp" unicode="&#xe873;" d="M209-110l0 104 282 0 0-104q-70-42-142-40-70-2-140 40z m276 164l-270 0q0 72-36 140t-78 113-74 112-26 139q8 120 94 206t254 86q170 0 255-86t95-206q4-60-16-113t-52-96-65-85-57-96-24-114z m-378 496q-4-4 0-20t2-20 5-19 6-18 8-18 11-19 13-19 14-19 15-21 16-23q88-122 112-212l82 0q24 94 112 212 4 6 25 35t25 36 17 29 16 33 6 28 1 35q-16 196-244 196-226 0-242-196z" horiz-adv-x="700" />

<glyph glyph-name="pencil-1" unicode="&#xe874;" d="M718 680q32-32 47-64t15-48l0-16-252-252-290-288-238-52 50 240 290 288 252 252q54 12 126-60z m-494-640l24 24q-2 44-52 94-22 22-45 35t-35 13l-14 2-22-24-18-80q28-16 46-34 24-24 36-48z" horiz-adv-x="780" />

<glyph glyph-name="coupon_web" unicode="&#xe875;" d="M268 410c-14 0-26-11-26-25 0-15 12-26 26-26 14 0 26 12 26 26 0 14-12 25-26 25z m0-96c-14 0-26-11-26-25 0-15 12-26 26-26 14 0 26 12 26 26 0 14-12 25-26 25z m0-95c-14 0-26-12-26-26 0-14 12-26 26-26 14 0 26 12 26 26 0 14-12 26-26 26z m0 287c-14 0-26-11-26-25 0-15 12-26 26-26 14 0 26 11 26 26 0 14-12 25-26 25z m674 117h-651-5-46-182-46v-47-479-47h46 182 46 5 650 47v47 479 47h-46z m0-526h-651c0 14-11 26-26 26-14 0-25-12-25-26h-182v479h182c0-14 11-25 25-25 15 0 26 11 26 25h651v-479z m-341 393c83 0 148-65 148-148 0-83-65-149-148-149-83 0-149 66-149 149 0 82 66 148 149 148z m-82-142c1 19 6 42 15 66-13 6-25 12-34 18-20-22-32-51-34-84h53z m-53-13c1-33 14-62 34-84 9 6 21 12 34 18-10 24-15 48-15 66h-53z m97 136c-20-5-39-15-54-29 8-6 18-12 29-17 7 17 15 33 25 46z m-54-230c15-14 33-24 54-29-10 14-18 29-24 46-12-5-22-10-30-17z m85 157c-15 0-32 5-48 12-8-21-13-41-14-62h62v50z m-62-63c1-20 6-41 14-62 16 8 33 12 48 13v49h-62z m62 141c-4 0-9 0-13-1-12-16-23-35-32-55 15-5 31-8 45-9v65z m0-204c-14-1-29-4-44-9 8-20 18-39 30-55 5-1 10-2 14-2v66z m13 139c15 1 30 4 45 10-8 20-19 38-31 54-5 1-9 2-14 2v-66z m0-63h62c0 21-5 41-13 62-17-7-34-12-49-13v-49z m0-13v-49c15-1 32-6 49-13 8 21 12 42 13 62h-62z m0-129c5 0 9 1 14 2 12 16 22 35 30 55-14 5-30 8-44 9v-66z m85 236c-15 14-33 24-54 29 10-13 19-29 25-46 11 5 21 11 29 17z m-54-230c21 5 39 16 54 30-8 6-18 11-29 16-7-17-15-32-25-46z m97 136c-1 33-13 62-33 84-10-6-21-12-34-18 8-24 14-47 14-66h53z m-53-13c0-18-5-42-15-66 14-6 25-12 34-18 21 22 33 51 34 84h-53z" horiz-adv-x="1000" />

<glyph glyph-name="arrow-11" unicode="&#xe876;" d="M1000 350l-500 333v-208h-500v-250h500v-208z" horiz-adv-x="1000" />

<glyph glyph-name="arrow-17" unicode="&#xe877;" d="M667 517v166l333-333-333-333v166h-209v334h209z m-292 0h-83v-334h83v334z m-167 0h-83v-334h83v334z m-166 0h-42v-334h42v334z" horiz-adv-x="1000" />

<glyph glyph-name="edit2" unicode="&#xe878;" d="M964 411l-35-35-88 89 35 35c9 9 25 9 34 0l54-55c10-9 10-24 0-34z m-344-344l-89 88 293 293 89-88-293-293z m-37 72l20-21 256 256-20 20-256-255z m-100-121l30 119 89-89-119-30z m-283 19v42h229v-42h-229z m0 215h313v-43h-313v43z m446 346v-43h-210v43h210z m0-216h-446v43h446v-43z m121 376c0 22-18 40-40 40h-355v-244c0-27-22-48-49-48h-243v-566c0-22 17-40 39-40h608c22 0 40 18 40 40v194l51 51v-245c0-50-41-91-91-91h-608c-50 0-91 41-91 91v579c0 27 11 52 30 71l230 230c18 19 44 29 70 29h369c50 0 91-41 91-91v-236l-51-51v287z m-441 28l-235-235h204c22 0 31 8 31 30v205z" horiz-adv-x="1000" />

<glyph glyph-name="edit3" unicode="&#xe879;" d="M948 459l-40-39-98 98 39 40c11 10 28 10 38 0l61-61c10-10 10-27 0-38z m-517-418l34 132 327 327 98-98-326-327-133-34z m358 417l-284-285 22-22 285 285-23 22z m3 140l-55-55-25-25-309-309-57-223c-2-9 1-17 7-24s14-8 23-6l223 57 211 211v-330c0-25-20-45-45-45h-677c-24 0-44 20-44 45v629h271c30 0 54 25 54 54v272h396c25 0 45-20 45-44v-191c-4-3-7-5-10-8l-8-8z m-508-24h-227l262 262v-228c0-25-10-34-35-34z" horiz-adv-x="1000" />

<glyph glyph-name="edit4" unicode="&#xe87a;" d="M937 431c-44-24-73-31-107-21 32-38-24-100-139-98 34-37 3-96-82-93 0 0-78-154-93-178-19-34-64-5-45 31 77 141 247 534 410 557 145 23 150-147 56-198z m-514-333c-15-28-15-61 0-87 15-25 42-40 71-40 28 0 55 16 70 42 11 19 56 106 80 153 16 2 31 7 44 13v-279h-689v894h689v-239c-77-95-150-231-223-375-16-32-30-60-42-82z m-280 21h201v55h-201v-55z m329 456h-329v-54h329v54z m0-201h-329v-54h329v54z" horiz-adv-x="1000" />

<glyph glyph-name="edit5" unicode="&#xe87b;" d="M979 423l-36-37-124 124 36 37c24 23 62 23 86 0l39-39c23-24 23-62-1-85z m-376-378h-124v125l306 306 124-124-306-307z m-183-58h207l104 104v-221h-734v956h734v-321l-311-311v-207z m-270 118h214v58h-214v-58z m350 487h-350v-59h350v59z m0-273v58h-350v-58h350z" horiz-adv-x="1000" />

<glyph glyph-name="box2" unicode="&#xe87c;" d="M1-141v667 8l171 301h658l171-301v-675h-1000z m476 912h-268l-119-211h387v211z m316 0h-268v-211h387l-119 211z m144-259h-872v-589h871v589z m-529-121h186c19 0 34-15 34-34 0-19-15-34-34-34h-186c-19 0-34 15-34 34s15 34 34 34z" horiz-adv-x="1000" />

<glyph glyph-name="box3" unicode="&#xe87d;" d="M1-139v663h1000v-663h-1000z m611 520h-222c-22 0-40-19-40-41 0-23 18-41 40-41h222c22 0 41 18 41 41 0 22-19 41-41 41z m-81 454h325l145-256h-470v256z m-385 0h326v-256h-471l145 256z" horiz-adv-x="1000" />

<glyph glyph-name="crown" unicode="&#xe87e;" d="M1-53v96h1000v-96h-1000z m0 708l250-134 250 227 250-227 250 134v-537h-1000v537z m500-373l97 88-97 88-97-88 97-88z" horiz-adv-x="1000" />

<glyph glyph-name="kirakira" unicode="&#xe87f;" d="M894 538c-131 0-176-33-202-58-25-26-58-71-58-202 0-5-1-19-16-19-16 0-17 14-17 19 0 131-33 176-58 202-26 25-71 58-202 58-5 0-19 1-19 16 0 16 14 16 19 16 131 0 177 33 202 58 25 26 58 71 58 202 0 5 1 19 17 19 15 0 16-14 16-19 0-131 33-176 58-202 26-25 71-58 202-58 5 0 19 0 19-16 0-16-14-16-19-16z m-551-435c17-18 48-40 138-40 4 0 13-1 13-12 0-10-9-11-13-11-90 0-121-22-138-40-18-17-40-48-40-138 0-4-1-13-12-13-10 0-11 9-11 13 0 90-22 121-40 138-17 18-48 40-138 40-4 0-13 1-13 11 0 11 9 12 13 12 90 0 121 22 138 40 18 17 40 48 40 138 0 3 1 13 11 13 11 0 12-10 12-13 0-90 22-121 40-138z" horiz-adv-x="1000" />

<glyph glyph-name="flower" unicode="&#xe880;" d="M949 249c-10 36-26 69-47 100 21 31 37 64 47 100 24-30 41-64 52-100-11-36-28-70-52-100z m-201-288c17 33 30 68 37 104 36 8 71 20 104 38-5-38-16-74-34-107-33-18-70-30-107-35z m0 776c37-5 74-17 107-34 17-33 29-70 34-107-33 17-68 30-104 37-8 36-20 71-37 104z m-20-388c10 14 18 29 25 44 18-12 34-25 49-40 1-1 3-2 4-4-1-1-3-2-4-4-15-15-31-28-49-39-7 15-15 29-25 43z m52 116c7 29 11 59 12 89 34-10 66-25 95-45-6-35-18-69-35-99-22 21-46 39-72 55z m12-321c-1 30-5 60-12 89 26 16 50 34 71 55 18-30 30-64 35-99-28-20-60-35-94-45z m-81-11c-21 0-42 2-62 7 5 16 9 32 13 48 16 4 33 8 48 13 5-20 7-41 7-62 0-2 0-4 0-6-2 0-4 0-6 0z m-16 134c-11-4-23-8-35-11 0 8-1 17-1 26 6 6 13 11 19 17 6-10 12-21 17-32z m-35 175c12-3 24-7 35-11-5-11-11-22-17-33-6 6-13 12-19 18 1 9 1 18 1 26z m2 68c-4 16-8 33-13 48 20 5 41 7 62 7 2 0 4 0 6 0 0-2 0-4 0-6 0-21-2-42-7-62-16 5-32 9-48 13z m-100 190c30 17 64 29 99 35 20-29 36-61 45-95-30 0-60-4-89-12-16 26-34 50-55 72z m-161 98c30 23 64 40 100 51 36-11 70-28 100-51-36-11-69-27-100-48-31 21-64 37-100 48z m-15-170c-30 7-60 12-90 12 10 34 25 66 45 95 35-6 69-18 99-35-21-22-39-46-54-72z m-46-118c-16-4-33-8-48-13-5 20-7 41-7 62 0 2 0 4 0 6 2 0 4 0 6 0 21 0 42-2 62-7-5-16-9-32-13-48z m-140-165c-2 1-3 3-4 4 1 1 2 3 4 4 15 15 31 28 48 40 8-15 16-30 26-44-10-14-18-29-26-44-17 12-33 25-48 40z m-86 251c4 37 16 74 34 107 32 17 69 29 106 34-17-33-30-68-37-104-36-8-71-20-103-37z m-113-247c11 36 29 70 52 100 10-36 26-69 47-100-21-31-37-64-47-100-23 30-41 64-52 100z m209 205c1-30 5-60 12-89-26-16-50-34-71-55-18 30-30 64-35 99 28 20 60 36 94 45z m0-410c-34 10-66 25-95 45 6 35 18 69 35 99 22-21 46-39 72-54-7-29-11-60-12-90z m44-183c-37 5-74 17-106 34-18 33-30 70-34 107 32-17 67-29 103-37 8-36 20-71 37-104z m53 470c11 4 23 8 35 11 0-8 1-17 1-26-6-5-13-11-19-17-6 10-12 21-17 32z m35-175c-12 3-24 7-36 11 6 11 12 22 18 33 6-6 12-12 19-18 0-9-1-18-1-26z m-2-68c4-16 8-32 13-48-20-5-41-7-62-7-2 0-4 0-6 0 0 2 0 4 0 6 0 21 2 42 7 62 16-5 32-9 48-13z m100-190c-30-17-64-29-99-35-20 29-35 61-45 95 30 1 60 5 89 12 16-26 34-50 55-72z m161-97c-30-24-64-41-100-52-36 11-70 28-100 52 36 10 69 26 100 47 31-21 64-37 100-47z m-18 254c-11 5-22 11-33 17 6 6 12 13 18 19 9 0 18-1 26-1-3-12-7-24-11-35z m-38-58c-12-18-25-34-40-49-1-1-2-3-4-4-1 1-3 3-4 4-15 15-28 31-39 49 15 7 29 16 43 25 14-9 29-18 44-25z m-93 75c-11-6-22-12-33-17-4 11-8 23-11 35 8 0 17 1 26 1 6-7 12-13 18-19z m-33 371c11-5 22-11 33-17-6-6-12-12-18-19-9 0-18 1-26 1 3 12 7 24 11 35z m38 58c12 18 25 34 40 49 1 1 2 3 4 4 1-1 3-3 4-4 15-15 28-31 39-49-15-7-29-15-43-25-14 10-29 18-44 25z m93-75c11 6 22 12 33 17 4-11 8-23 11-35-8 0-17-1-26-1-5 7-12 13-18 19z m39-264c-28-15-58-28-88-37-30 9-60 22-87 37-16 27-28 57-37 87 9 30 22 60 37 88 27 15 57 27 87 36 30-9 60-22 88-36 15-28 27-58 36-88-9-30-22-59-36-87z m27-192c30-7 60-11 90-12-10-34-25-66-45-95-35 6-69 18-99 35 21 22 39 46 54 72z" horiz-adv-x="1000" />

<glyph glyph-name="user_arrow1" unicode="&#xe881;" d="M1000 104c0-36-10-66-31-92-20-25-45-38-73-38h-418c-29 0-54 13-74 38-21 26-31 56-31 92 0 28 2 54 5 78s7 50 15 75c7 25 17 46 29 64 11 18 26 32 46 44 19 11 41 16 65 16 43-41 94-62 154-62 59 0 110 21 153 62 25 0 47-5 66-16 19-12 34-26 46-44s21-39 28-64c8-25 13-50 16-75 3-24 4-50 4-78z m-125 434c0-52-19-96-55-133s-81-55-133-55c-52 0-97 18-133 55s-55 81-55 133 18 96 55 133 81 55 133 55c52 0 96-18 133-55s55-81 55-133z m-497-209c0-9-3-17-9-23l-167-167c-7-7-15-10-24-10-9 0-16 3-23 10l-19 19c-7 6-10 14-10 23s3 17 10 24l75 75h-181c-9 0-16 3-22 10-5 6-8 14-8 23v33c0 9 3 17 8 23 6 6 13 10 22 10h181l-75 75c-7 6-10 14-10 23 0 10 3 17 10 24l19 19c7 6 14 10 23 10 9 0 17-4 24-10l167-167c6-7 9-14 9-24z" horiz-adv-x="1000" />

<glyph glyph-name="user_check1" unicode="&#xe882;" d="M1000 104c0-36-10-66-31-92-20-25-45-38-73-38h-418c-29 0-54 13-74 38-21 26-31 56-31 92 0 28 2 54 5 78s7 50 15 75c7 25 17 46 29 64 11 18 26 32 46 44 19 11 41 16 65 16 43-41 94-62 154-62 59 0 110 21 153 62 25 0 47-5 66-16 19-12 34-26 46-44s21-39 28-64c8-25 13-50 16-75 3-24 4-50 4-78z m-125 434c0-52-19-96-55-133s-81-55-133-55c-52 0-97 18-133 55s-55 81-55 133 18 96 55 133 81 55 133 55c52 0 96-18 133-55s55-81 55-133z m-429-84c0-7-2-14-8-19l-208-209-39-39c-5-5-12-8-20-8s-14 3-19 8l-39 39-104 104c-6 6-8 12-8 20s2 14 8 20l39 39c5 5 12 8 19 8 8 0 15-3 20-8l85-85 188 189c6 5 12 8 20 8s14-3 19-8l40-39c5-6 7-12 7-20z" horiz-adv-x="1000" />

<glyph glyph-name="yen2" unicode="&#xe883;" d="M409-40h-99c-5 0-9 2-13 6-3 3-5 7-5 13v189h-165c-5 0-9 2-13 5-3 3-5 8-5 13v59c0 5 2 9 5 13s8 5 13 5h165v49h-165c-5 0-9 2-13 5s-5 8-5 13v60c0 5 2 9 5 13 4 4 8 5 13 5h123l-184 331c-3 7-3 13 0 19 4 6 9 9 16 9h111c7 0 13-4 17-10l123-244c7-14 18-38 32-71 4 9 9 22 17 39s13 28 16 35l109 240c3 7 9 11 17 11h109c7 0 12-3 16-9 3-6 3-12 0-18l-179-332h123c5 0 10-1 13-5 4-4 6-8 6-13v-59c0-6-2-10-6-14-3-3-8-5-13-5h-166v-48h166c5 0 10-2 13-6 4-3 6-8 6-13v-59c0-5-2-9-6-13-3-3-8-5-13-5h-166v-189c0-5-2-9-5-13s-8-6-13-6z m214 15l29 29-76 77-30-30v-35h42v-41h35z m170 302c0 4-3 7-8 7-2 0-4-1-5-3l-176-176c-2-1-3-3-3-5 0-5 3-7 8-7 2 0 4 0 5 2l176 176c2 2 3 3 3 6z m-18 62l135-135-270-271h-135v135l270 271z m222-31c0-12-4-22-12-29l-54-54-135 135 54 53c8 9 17 13 29 13 12 0 21-4 30-13l76-76c8-8 12-18 12-29z" horiz-adv-x="1000" />

<glyph glyph-name="yen3" unicode="&#xe884;" d="M534 17h-65c-4 0-7 1-9 3-2 3-4 5-4 9v126h-109c-4 0-6 1-9 3s-4 5-4 9v39c0 4 2 6 4 9 2 2 5 4 9 4h109v32h-109c-4 0-6 1-9 3s-4 6-4 9v40c0 3 2 6 4 8 2 3 5 4 9 4h81l-122 220c-2 5-2 9 0 13 2 4 6 6 11 6h73c5 0 9-3 12-7l81-162c5-10 12-26 22-48 2 6 6 15 11 26 6 11 9 19 11 23l73 160c2 5 5 8 11 8h73c4 0 7-2 10-6 2-4 2-8 0-12l-119-221h82c3 0 6-1 9-4 2-2 3-5 3-8v-40c0-3-1-6-3-9s-6-3-9-3h-111v-32h111c3 0 6-2 9-4 2-2 3-5 3-9v-39c0-4-1-6-3-9s-6-3-9-3h-111v-126c0-3-1-6-3-9-3-2-6-3-9-3z m357 621c10-10 19-25 26-42s12-35 12-50v-642c0-15-6-28-16-38s-23-16-38-16h-750c-15 0-27 5-38 16s-16 23-16 38v892c0 15 6 28 16 38s23 16 38 16h500c15 0 31-4 49-11s32-16 43-27l174-174z m-248 136v-210h210c-4 11-8 19-13 23l-174 175c-5 4-12 8-23 12z m214-853v572h-232c-15 0-27 5-38 16s-16 23-16 37v233h-428v-858h714z" horiz-adv-x="1000" />

<glyph glyph-name="task-1" unicode="&#xe885;" d="M917 767v-834h-834v834h834z m83 83h-1000v-1000h1000v1000z m-167-292h-333v-41h333v41z m0-208h-333v-42h333v42z m0-208h-333v-42h333v42z m-438 471l-29 29-107-109-64 61-29-30 94-89 135 138z m0-209l-29 29-107-108-64 60-29-29 94-89 135 137z m0-208l-29 29-107-109-64 61-29-30 94-89 135 138z" horiz-adv-x="1000" />

<glyph glyph-name="camera-1" unicode="&#xe886;" d="M500 450q64 0 107-44t43-106-44-106-106-44-106 44-44 106 44 106 106 44z m400 150q42 0 71-29t29-71l0-450q0-40-29-70t-71-30l-800 0q-40 0-70 30t-30 70l0 450q0 42 30 71t70 29l120 0q28 0 40 30l30 92q10 28 40 28l340 0q30 0 40-28l30-92q12-30 40-30l120 0z m-400-550q104 0 177 73t73 177-73 177-177 73-177-73-73-177 73-177 177-73z m366 380q14 0 24 11t10 25-10 24-24 10q-36 0-36-34 0-16 11-26t25-10z" horiz-adv-x="1000" />

<glyph glyph-name="print" unicode="&#xe887;" d="M66 526q-26 0-22 22 4 10 12 14 2 0 49 17t93 32 58 15l44 0 0 150 380 0 0-150 46 0q12 0 57-15t92-32 49-17q18-8 12-26-4-10-20-10l-850 0z m860-56q20 0 37-19t17-41l0-174q0-22-17-41t-37-19l-100 0 44-250-760 0 44 250-98 0q-20 0-38 19t-18 41l0 174q0 22 18 41t38 19l870 0z m-716-444l560 0-70 324-420 0z" horiz-adv-x="980" />

<glyph glyph-name="box" unicode="&#xe888;" d="M870 750q12 0 21-9t9-21l0-120-900 0 0 120q0 12 9 21t21 9l840 0z m-820-730l0 530 800 0 0-530q0-30-21-50t-49-20l-660 0q-28 0-49 20t-21 50z m250 430l0-100 300 0 0 100-300 0z" horiz-adv-x="900" />

<glyph glyph-name="home5" unicode="&#xe889;" d="M501 850l-501-500h125v-501h750v501h125l-499 500z m61-875h-124v188h124v-188z" horiz-adv-x="1000" />

<glyph glyph-name="warehouse" unicode="&#xe88a;" d="M423 130l0 0 0 0v-156h-166v157l166-1 0 0z m0 209h-165 0 0v-157h166v157l-1 0 0 0 0 0z m54-365h166v157h-166v-157z m24 841l-478-134v-57-87-25-628h121v563h712v-561-1 0h121v627 25 87 57l-476 134z" horiz-adv-x="1000" />

<glyph glyph-name="box2-edit" unicode="&#xe88b;" d="M463-8l-30-98c0 0 0 0 0 0l99 30c0 0 0 0 0 0l-69 68c0 1 0 1 0 0z m27 151h-441v448h664v-225l49 49v194l-130 229h-502l-130-230v-6-508h441l49 49z m-91 646h204l91-161h-295v161z m-240 0h204v-161h-295l91 161z m151-289c-14 0-26-12-26-26 0-15 12-26 26-26h142c14 0 26 11 26 26s-12 26-26 26h-142z m502-90l-123-123c-1-1-2-3-2-3-1 0-2-1-3-2l-234-234c0 0 0 0 0 0l-60-198c0 0 0 0 0 0l194 59c2 1 3 1 3 1s1 1 2 2l232 233c2 1 3 2 3 2 0 0 1 1 2 2l123 123c0 0 0 0 0 0l-137 138c0 0 0 0 0 0z m-280-486l-99-30c0 0 0 0 0 0l30 98c0 0 0 0 0 0l69-68c0 0 0 0 0 0z m457 467l-57 57c-16 15-41 15-56 0l-28-28c0 0 0 0 0 0l112-113c0 0 0 0 0 0l29 29c15 15 15 40 0 55z" horiz-adv-x="1000" />

<glyph glyph-name="heartbeat_cog" unicode="&#xe88c;" d="M711 150c0 0 0 0 0 0l-2 1 2-2c0 0 0 1 0 1z m-14 133c-6 3-11 8-14 15l-32 63-33-112c0 1 1 2 2 2 8 8 15 15 21 19 8 6 22 15 39 15 6 0 12-1 17-2z m-339 326c2 8 6 14 13 19s13 8 21 8 16-3 22-7c7-5 11-11 14-19l109-383 72 240c4 15 14 24 31 26 7 1 14-1 20-5s12-8 15-15l62-123h206c38 58 57 113 57 167 0 82-24 146-71 192-47 47-112 70-196 70-23 0-46-4-70-12s-47-19-67-33-39-26-54-38-29-25-42-38c-13 13-27 26-42 38s-33 25-54 38-43 25-67 33-47 12-70 12c-84 0-149-23-196-70-47-46-71-110-71-192 0-54 19-109 58-167h236l64 259z m524-331c1 0 1 1 1 1h-1c0 0 0-1 0-1z m-329-278c-8 11-13 24-13 37v28c-1-1-3-1-4-1-8 0-16 3-22 8s-11 11-13 18l-106 372-39-157c-2-7-6-14-12-19s-14-7-23-7h-205c6-7 9-11 11-12l348-336c7-6 15-10 25-10s18 4 25 10l52 51c-10 3-18 10-24 18z m152 280c1-1 2-1 3-2 0 0 0 1 0 1-1 0-2 0-3 1z m159-214c0 19-7 35-20 48-14 14-30 20-49 20s-35-6-48-20-20-29-20-48 7-35 20-48c13-14 29-20 48-20s35 6 49 20c13 13 20 29 20 48z m136 29v-59c0-2-1-4-2-6-1-2-3-3-5-4l-50-7c-3-10-7-18-10-25 6-8 16-21 28-36 2-2 3-5 3-7s-1-4-2-6c-5-7-14-16-27-29-13-13-21-19-25-19-2 0-4 1-7 3l-36 28c-8-4-16-7-25-10-3-24-5-40-8-49-1-5-4-8-9-8h-59c-3 0-5 1-7 2-2 2-3 4-3 6l-7 49c-9 3-17 6-24 10l-38-28c-2-2-4-3-7-3-2 0-4 1-6 3-23 20-37 35-44 45-1 2-2 4-2 6 0 2 1 4 2 6 3 4 7 10 14 18 6 8 11 14 14 19-5 9-8 18-11 26l-49 7c-2 1-4 2-5 4-2 2-2 4-2 6v59c0 2 0 4 2 6 1 2 3 3 5 4l49 7c3 8 6 17 11 25-7 10-17 22-29 37-1 2-2 4-2 6 0 2 0 4 2 6 5 7 13 16 26 29 13 13 22 19 26 19 2 0 4-1 6-3l37-28c8 4 16 7 24 10 3 24 6 41 8 49 1 5 5 8 10 8h59c3 0 5-1 7-2 1-2 2-4 3-6l7-49c9-3 17-6 24-10l38 28c2 2 4 3 6 3 3 0 5-1 7-3 23-21 38-36 44-45 1-2 2-4 2-6 0-2-1-4-2-6-3-4-7-10-14-18s-11-14-14-19c4-9 8-17 11-26l48-7c3-1 5-2 6-4 1-2 2-4 2-6z" horiz-adv-x="1000" />

<glyph glyph-name="columns_cog" unicode="&#xe88d;" d="M589-60c0 10 3 20 9 29 2 2 3 4 6 7l-12 1c-11 2-21 8-28 16h-28v643h357v-376c5 2 11 3 17 3 12 0 23-4 32-12l1-1 0 0c9-8 16-15 21-20v459c0 25-8 46-26 63s-38 27-63 27h-750c-25 0-46-9-63-27s-26-38-26-63v-678c0-25 9-46 26-63s38-27 63-27h467c-2 6-3 12-3 19z m-125 53h-339c-5 0-9 2-13 5s-5 8-5 13v625h357v-643z m400 62c0 19-7 35-20 48-14 13-30 20-49 20s-35-7-48-20-20-29-20-48 7-35 20-48c13-14 29-20 48-20s35 6 49 20c13 13 20 29 20 48z m136 29v-59c0-2-1-4-2-6-1-2-3-4-5-4l-50-7c-3-10-7-18-10-25 6-9 16-21 28-37 2-2 3-4 3-6s-1-5-2-6c-5-7-14-16-27-29-13-13-21-19-25-19-2 0-4 1-7 2l-36 29c-8-4-16-7-25-10-3-24-5-41-8-50-1-5-4-7-9-7h-59c-3 0-5 1-7 2-2 2-3 4-3 6l-7 49c-9 3-17 6-24 10l-38-29c-2-1-4-2-7-2-2 0-4 1-6 3-23 20-37 35-44 45-1 2-2 4-2 6 0 2 1 4 2 6 3 4 7 10 14 18 6 8 11 14 14 19-5 8-8 17-11 26l-49 7c-2 1-4 2-5 4-2 1-2 4-2 6v59c0 2 0 4 2 6 1 2 3 3 5 4l49 7c3 8 6 16 11 25-7 10-17 22-29 36-1 3-2 5-2 7 0 2 0 4 2 6 5 6 13 16 26 29 13 12 22 19 26 19 2 0 4-1 6-3l37-28c8 4 16 7 24 10 3 24 6 40 8 49 1 5 5 8 10 8h59c3 0 5-1 7-3 1-1 2-3 3-5l7-49c9-3 17-6 24-10l38 28c2 2 4 3 6 3 3 0 5-1 7-3 23-21 38-36 44-45 1-2 2-4 2-6 0-2-1-4-2-6-3-4-7-10-14-18s-11-14-14-19c4-9 8-17 11-26l48-7c3-1 5-2 6-4 1-2 2-4 2-6z" horiz-adv-x="1000" />

<glyph glyph-name="heartbeat_edit" unicode="&#xe88e;" d="M683 298l-32 63-63-209 127 127h-1c-14 0-25 6-31 19z m-200-252l28 28c-5 5-8 10-10 16l-106 372-39-157c-2-7-6-14-12-19s-14-7-23-7h-205c6-7 9-11 11-12l327-315 29 94z m-125 563c2 8 6 14 13 19s13 8 21 8 16-3 22-7c7-5 11-11 14-19l109-383 72 240c4 15 14 24 31 26 7 1 14-1 20-5s12-8 15-15l62-123h50l52 52 11-11 8 8c16 16 37 25 60 25 20 0 39-8 55-21 18 39 27 77 27 115 0 81-24 145-71 191-47 47-112 70-196 70-23 0-46-4-70-12s-47-19-67-33-39-26-54-38-29-25-42-38c-13 13-27 26-42 38s-33 25-54 38-43 25-67 33-47 12-70 12c-84 0-149-23-196-70-47-46-71-110-71-192 0-54 19-109 58-167h236l64 259z m480-278l-105-106c-1-1-2-2-2-2 0 0-1-1-2-2l-202-201 0 0-51-170 0 0 167 51c1 0 2 1 2 1s1 0 2 1l200 200c1 1 2 2 2 2 0 0 1 1 2 2l105 106 0 0-118 118 0 0z m-240-418l-85-25 0 0 26 84 0 0 59-59c0 0 0 0 0 0z m392 402l-49 48c-13 14-34 14-47 0l-25-24 0 0 97-96 0 0 24 24c13 13 13 34 0 48z" horiz-adv-x="1000" />

<glyph glyph-name="columns_edit" unicode="&#xe88f;" d="M483 46l53 53v537h357v-216c8 2 16 3 25 3 17 0 33-4 46-14v280c0 25-8 46-26 63s-38 27-63 27h-750c-25 0-46-9-63-27s-26-38-26-63v-678c0-25 9-46 26-63s38-27 63-27h320l38 125z m-371-48c-3 4-5 8-5 13v625h357v-643h-339c-5 0-9 2-13 5z m781 80v-67c0-5-2-9-5-13s-8-5-13-5h-67l-72-72h139c25 0 46 9 63 27s26 38 26 63v138l-71-71z m-54 253l-106-106c-1-1-2-2-2-2 0 0-1-1-2-2l-201-201 0 0-52-170 0 0 167 51c1 0 3 1 3 1s0 0 1 1l200 200c1 1 2 2 2 2 0 0 1 1 2 2l106 106 0 0-118 118 0 0z m-241-418l-84-25 0 0 25 84 0 0 59-59c0 0 0 0 0 0z m392 402l-48 48c-13 14-35 14-48 0l-25-24 0 0 97-96 0 0 25 24c13 13 13 34-1 48z" horiz-adv-x="1000" />

<glyph glyph-name="bucket" unicode="&#xe890;" d="M522 780q174 0 286-49t104-105q-6-38-48-307t-44-281q-2-18-37-44t-107-50-154-24-153 24-106 50-37 44q0 2-4 30 82-6 163 35t139 117q28 0 48 20t20 50q0 28-20 49t-50 21q-28 0-49-21t-21-49q0-20 10-36-48-58-115-89t-131-27q-102 10-157 57t-59 109q-8 122 156 184-18 94-22 138-8 56 104 105t284 49z m-452-470q4-32 37-59t91-39l-32 204q-100-44-96-106z m452 212q82 0 157 18t113 39 38 35-38 35-112 39-158 18q-82 0-156-18t-112-39-38-35 38-35 112-39 156-18z" horiz-adv-x="913" />

<glyph glyph-name="drive" unicode="&#xe891;" d="M884 304q26-44 14-96l-34-184q-2-20-19-35t-39-15l-712 0q-20 0-38 15t-20 35l-34 184q-8 52 14 96l158 374q22 46 72 46l408 0q50 0 74-46z m-68-132q2 22-10 38t-34 16l-644 0q-22 0-34-16t-10-38l14-74q2-22 19-37t39-15l590 0q22 0 39 15t19 37z" horiz-adv-x="902" />

<glyph glyph-name="layers" unicode="&#xe892;" d="M18 183l446-112 447 112 0-112-447-112-446 112 0 112z m0 223l446-112 447 112 0-112-447-111-446 111 0 112z m0 223l446 112 447-112 0-111-447-112-446 112 0 111z" horiz-adv-x="928" />

<glyph glyph-name="info-circled2" unicode="&#xe893;" d="M991 372c-1 28-4 56-9 83-9 44-24 85-43 125-22 42-49 80-81 115-39 40-82 74-132 99-43 23-88 38-135 47-26 5-52 8-79 8-79 2-154-14-225-48-45-21-86-49-122-83-44-41-79-88-105-141-22-43-36-88-45-135-4-23-6-47-6-70-3-84 15-164 54-238 20-41 47-78 78-111 40-43 86-78 138-104 41-21 85-36 130-44 27-5 55-8 82-8 54-1 107 6 158 22 31 10 62 10 93 1 43-13 87-26 131-39 11-3 20 5 17 17-6 26-13 53-19 79-9 44 0 84 26 121 30 41 54 87 70 136 10 30 17 60 21 91 2 19 3 37 3 55 0 1 0 2 1 3 0 3 0 7 0 11-1 2-1 5-1 8z m-71-30c-2-57-15-112-40-165-12-24-26-47-41-69-22-29-35-63-40-99-3-20-3-39 0-58 0-1 0-3 0-4-6 2-11 3-16 5-15 4-30 9-45 12-37 7-74 5-110-7-27-8-54-14-81-17-31-3-61-4-92 0-66 7-128 29-184 65-62 40-110 93-144 158-20 38-34 79-42 122-3 21-5 42-6 64-1 67 12 131 41 191 20 42 46 79 79 112 54 56 119 94 194 114 28 7 57 12 87 13 74 3 145-12 211-46 36-18 69-41 98-69 36-33 65-72 87-116 19-38 32-78 39-120 5-28 6-57 5-86z m-340 52c0-17-4-35-9-52-15-55-31-110-46-165-8-30 15-61 46-60 10 0 20 3 31 4 2 1 4 1 6 1 1 1 2 0 2 0 0-1 0-2-1-3-3-4-6-8-10-12-16-17-34-31-57-39-26-9-51-8-76 2-22 9-34 26-38 49-3 19-1 38 4 57 7 27 15 55 22 83 9 31 18 63 27 95 8 30-14 60-45 60-11 0-22-3-33-4-2-1-3-1-5-1 0 0-1 0-2 0 0 1 0 2 1 3 3 4 7 8 10 12 15 16 31 29 51 37 29 12 58 11 87-2 19-9 29-24 33-44 1-7 1-14 2-21z m-36 263c40-1 70-34 69-71 0-37-31-69-70-68-38 1-69 32-69 70 1 38 32 69 70 69z" horiz-adv-x="1000" />

<glyph glyph-name="hourglass" unicode="&#xe894;" d="M560 622q0-44-48-96t-97-99-49-77 49-76 97-97 48-97l0-118q0-34-86-73t-194-39-194 39-86 73l0 118q0 46 48 97t97 97 49 76-49 77-97 99-48 96l0 118q0 32 87 71t193 39 193-39 87-71l0-118z m-482 112l-18-14q-4-8 4-14 92-52 216-52 132 0 220 50 14 10-16 30-96 54-202 54-120 0-204-54z m228-384q0 18 4 33t18 33 20 25 31 31 29 28q92 92 92 122l2 50q-100-54-222-54t-222 54l4-50q0-32 90-122 6-6 22-21t23-22l19-19t17-21 11-20 9-23 3-24q0-10-1-19t-6-18-8-16-11-17l-12-15t-15-16-16-15-18-16-17-16q-90-90-90-122l0-66q8 4 66 23t92 43 34 58q0 30 26 30t26-30q0-34 33-58t94-43 67-23l0 66q0 30-92 122-4 4-21 20t-22 21-18 19-18 22-12 20-9 23-2 23z" horiz-adv-x="560" />

<glyph glyph-name="cog_plus" unicode="&#xe895;" d="M1001 92v-58c0-8-3-15-9-21-5-5-12-8-20-8h-127v-127c0-8-3-15-8-21-6-5-13-8-21-8h-58c-9 0-15 3-21 8-6 6-9 13-9 21v127h-126c-8 0-15 3-21 8-6 6-9 13-9 21v58c0 8 3 15 9 21 6 6 13 9 21 9h126v126c0 8 3 15 9 21s12 8 21 8h58c8 0 15-2 21-8 5-6 8-13 8-21v-126h127c8 0 15-3 20-9 6-6 9-13 9-21z m-449-108c-14 13-21 31-21 50v58c0 20 7 37 21 51 13 13 31 20 50 20h85v85c0 19 7 37 20 50 14 14 31 21 51 21h58c19 0 37-7 50-21 1 0 1 0 1-1l28 4c5 1 9 4 12 8s5 9 5 14v130c0 5-2 10-5 14-3 4-7 6-12 7l-107 17c-6 18-14 38-24 57 7 10 17 24 31 42 14 17 24 30 30 39 3 4 5 8 5 13 0 6-1 10-4 13-14 20-46 53-97 100-5 4-10 6-15 6-5 0-10-2-14-6l-83-62c-16 8-34 15-53 21l-16 108c-1 5-3 10-7 13-4 3-9 5-14 5h-131c-11 0-18-6-21-17-5-19-11-56-17-109-18-6-36-13-53-22l-81 63c-5 4-11 6-16 6-8 0-27-14-55-42s-48-49-58-64c-4-5-5-9-5-13 0-5 2-9 6-14 26-32 47-59 62-81-9-18-17-36-22-54l-110-17c-4 0-8-3-11-7-3-4-4-9-4-14v-130c0-5 1-9 4-14 3-4 7-6 13-7l107-16c5-19 13-38 24-58-7-10-18-23-32-41-14-18-24-31-30-39-3-5-4-9-4-14 0-5 1-9 4-13 15-21 47-54 96-99 5-4 9-6 15-6 6 0 11 1 15 5l82 63c16-9 34-16 53-22l17-108c0-5 2-9 6-13 4-3 9-5 15-5h130c11 0 18 6 21 17 2 7 4 16 6 27-1 1-1 1-1 2z m-91 255c-42 0-77 14-106 44-30 29-44 64-44 106s14 77 44 106c29 30 64 44 106 44s77-14 106-44c30-29 44-64 44-106s-15-77-44-106c-29-30-64-44-106-44z" horiz-adv-x="1000" />

<glyph glyph-name="withdraw_money" unicode="&#xe896;" d="M681 80h-115v142c0 5-2 9-5 12-3 3-7 5-12 5h-68l-26-17c-6-4-13-6-21-6v-136h-115c-7 0-12-3-15-10-2-6-1-12 3-18l182-197c4-3 8-5 13-5 4 0 8 2 11 5l180 197c5 6 5 12 3 18-3 7-8 10-15 10z m-2 516c0 0 0 0 0 0 0 1 0 1-1 2 0 0 0 0 0 0 0 1 0 1 0 2 0 0 0 0 0 0 0 0-1 1-1 1 0 0 0 1 0 1 0 0 0 0 0 0-1 0-1 1-1 1 0 0 0 0 0 0-1 1-1 1-1 2-1 0-1 0-1 0 0 0-1 1-1 1 0 0 0 0 0 0-1 1-1 1-2 1l-225 128 129 82 218-124-92-57c-7-5-9-14-4-21 4-7 14-10 21-5l113 71c5 3 7 8 7 13 0 6-3 11-8 13l-247 141c-5 3-11 3-16 0l-159-100c0 0 0 0 0 0l-80-50c0 0 0 0 0 0l-159-101c-4-2-7-8-7-13 0-5 3-10 8-13l247-141c3-1 5-2 8-2 3 0 6 1 8 3l113 71c8 5 10 14 5 21-4 7-14 9-21 5l-105-67-218 124 130 82 232-132v-175c0-5 3-10 8-13 2-1 5-2 7-2 3 0 6 1 8 2l80 50c4 3 7 8 7 13v184c0 0 0 0 0 0 0 1 0 1 0 2z m-80-208v156c0 5-3 10-7 13l-226 128 50 32 218-124-19-12c-7-4-9-14-5-21 3-4 8-7 13-7 3 0 6 1 8 2l17 11v-147l-49-31z m216 258l-114-71c-7-5-9-14-4-21 3-5 8-8 13-8 2 0 5 1 8 3l113 71c7 5 9 14 5 21-5 7-14 9-21 5z m-285-179l-105-67-240 137c-8 4-17 1-21-6-4-8-2-17 6-21l247-141c3-1 5-2 8-2 3 0 6 1 8 2l113 72c8 4 10 14 5 21-4 7-14 9-21 5z m285 118l-114-72c-7-4-9-14-4-21 3-4 8-7 13-7 2 0 5 1 8 2l113 72c7 4 9 14 5 21-5 7-14 9-21 5z m-285-179l-105-67-240 136c-8 5-17 2-21-5-4-8-2-17 6-21l247-141c3-1 5-2 8-2 3 0 6 1 8 2l113 72c8 4 10 14 5 21-4 7-14 9-21 5z m285 118l-114-72c-7-4-9-14-4-21 3-4 8-7 13-7 2 0 5 1 8 2l113 72c7 4 9 14 5 21-5 7-14 9-21 5z m-285-180l-105-66-240 136c-8 4-17 2-21-6-4-7-2-16 6-20l247-141c3-2 5-2 8-2 3 0 6 1 8 2l113 71c8 5 10 14 5 22-4 7-14 9-21 4z" horiz-adv-x="1000" />

<glyph glyph-name="cube" unicode="&#xe897;" d="M963 372c0 66 0 131 0 197 0 47-20 76-64 92-122 46-244 91-366 137-23 9-45 8-68 0-122-46-243-91-365-137-43-16-63-45-63-91 0-131 0-262 0-393 0-41 18-70 54-88 122-60 244-121 365-182 30-15 58-15 88-1 122 62 244 123 366 183 35 18 53 47 53 87 0 66 0 131 0 196z m-470 55c-120 48-239 97-358 145-4 1-7 3-12 5 39 15 76 29 114 43 85 32 171 64 256 96 4 1 9 1 13 0 122-45 243-91 364-136 2-1 4-2 7-3-4-2-7-3-10-5-120-48-239-97-359-145-4-2-11-2-15 0z m377-261c-106-53-212-106-318-159-3-1-5-1-8-3 0 4-1 6-1 9 0 109 0 217 0 326 0 7 2 10 8 12 106 43 211 86 317 129 3 1 5 1 8 2 0-3 1-6 1-8 0-99 0-197 0-295 0-6-1-10-7-13z" horiz-adv-x="1000" />

<glyph glyph-name="cube02" unicode="&#xe898;" d="M963 372c0-65 0-130 0-196 0-40-18-69-53-86-122-61-244-122-366-183-30-15-58-15-88 0-121 61-243 122-365 182-36 18-54 47-54 88 0 131 0 262 0 393 0 46 20 75 63 91 122 46 243 91 365 137 23 8 45 9 68 0 122-46 244-91 366-137 44-16 64-45 64-92 0-66 0-131 0-197z m-840 205c5-2 8-4 12-5 119-48 238-97 358-145 4-2 11-2 15 0 120 48 239 97 359 145 3 2 6 3 10 5-3 1-5 2-7 3-121 45-242 91-364 136-4 1-9 1-13 0-85-32-171-64-256-96-38-14-75-28-114-43z m1-94c0-3 0-4 0-5 0-101 0-201 0-301 0-7 3-9 7-11 106-53 212-106 317-158 3-2 5-2 9-4 0 3 0 5 0 6 0 110 0 221 0 331 0 7-4 8-9 10-95 39-189 77-284 116-13 5-26 10-40 16z m420-479c3 2 6 2 8 3 106 53 212 106 318 159 6 3 7 7 7 13 0 98 0 196 0 295 0 3-1 5-1 8-3-1-5-1-8-2-105-43-211-86-317-129-6-2-8-5-8-12 0-108 0-217 0-326 0-3 1-5 1-9z" horiz-adv-x="1000" />

<glyph glyph-name="cube03" unicode="&#xe899;" d="M963 372c0 66 0 131 0 197 0 47-20 76-64 92-122 46-244 91-366 137-23 9-45 8-68 0-122-46-243-91-365-137-43-16-63-45-63-91 0-131 0-262 0-393 0-41 18-70 54-88 122-60 244-121 365-182 30-15 58-15 88 0 122 61 244 122 366 183 35 17 53 46 53 86 0 66 0 131 0 196z m-69 160l-374-159-2-421c0-10-8-19-19-19 0 0 0 0 0 0-11 0-20 9-20 19l2 421-381 166c-10 4-15 16-10 26 4 10 16 14 25 10l386-168 378 161c10 5 21 0 25-10 4-10 0-21-10-26z" horiz-adv-x="1000" />

<glyph glyph-name="clipboard_edit" unicode="&#xe89a;" d="M834 342l-108-108c-1-1-2-2-2-2 0 0-1-1-2-1l-205-205 0 0-53-173 0 0 170 52c2 0 3 0 3 0s1 1 2 2l203 203c1 1 2 2 2 2 0 1 1 1 2 2l107 108 0 0-119 120 0 0z m-245-425l-86-26 0 0 26 86 0 0 60-60c0 0 0 0 0 0z m399 409l-50 49c-13 14-35 14-48 0l-25-24 0 0 98-99 0 0 25 25c13 13 13 35 0 49z m-203-319l-93-92c31 0 62 0 93 0 0 30 0 61 0 92z m-287 683c15 0 29 16 28 34 0 16-14 31-28 31-20 0-36-13-35-31 0-21 14-34 35-34z m287-775c-31 0-62 0-93 0l-49-49-10-3-2-1-42-13c86 0 173 0 259 0 0 74 0 148 0 222l-63-64c0-31 0-62 0-92z m69 517c0 108 0 215 0 322-75 0-150 0-225 0 0-21 0-41 0-63 54 0 108 0 161 0 0-107 0-212 0-318l47 47c5 5 11 9 17 12z m-644-517c0 259 0 517 0 776 54 0 106 0 160 0 0 22 0 42 0 63-75 0-149 0-223 0 0-302 0-603 0-905 86 0 173 0 260 0l20 66c-73 0-145 0-217 0z m66 738c0-32 0-62 0-93 150 0 299 0 448 0 0 31 0 62 0 93-43 0-85 0-128 0 0 8 0 14 0 20 0 32 2 63-1 94-6 50-50 85-98 83-50-2-88-37-91-89-2-27-2-54-2-81 0-9 0-17 0-27-44 0-86 0-128 0z m228 103c13 0 27-16 28-32 0-18-14-34-29-34-21 0-35 14-35 35 0 17 15 30 36 31z m-132-262c0-11 0-21 0-32 117 0 234 0 352 0 0 12 0 22 0 32-118 0-235 0-352 0z m0-153c117 0 234 0 352 0 0 10 0 20 0 31-118 0-235 0-352 0 0-11 0-21 0-31z m-1-91c0-10 0-20 0-30 90 0 179 0 267 0l31 30c-99 0-198 0-298 0z m1-243c0-11 0-20 0-31 24 0 49 0 74 0l9 31c-28 0-56 0-83 0z m0 121c0-10 0-20 0-30 48 0 97 0 145 0l30 30c-58 0-117 0-175 0z m-67 366c-11 0-20 0-30 0 0-10 0-19 0-30 10 0 20 0 30 0 0 10 0 20 0 30z m0-122c-10 0-20 0-29 0 0-11 0-20 0-29 10 0 19 0 29 0 0 10 0 19 0 29z m0-122c-10 0-19 0-29 0 0-10 0-19 0-28 10 0 19 0 29 0 0 10 0 19 0 28z m0-243c-11 0-20 0-29 0 0-10 0-19 0-29 10 0 19 0 29 0 0 11 0 20 0 29z m-1 94c0 10 0 19 0 27-10 0-19 0-28 0 0-10 0-19 0-28 7 0 14 0 20 0 2 0 5 0 8 1z" horiz-adv-x="1000" />

<glyph glyph-name="task-1_edit" unicode="&#xe89b;" d="M73 776c0-285 0-569 0-852 123 0 245 0 367 0l21 69c-106 0-212 0-318 0 0 238 0 475 0 713 238 0 475 0 713 0 0-93 0-187 0-280 15 12 34 18 53 18 6 0 12 0 18-2 0 112 0 223 0 334-286 0-570 0-854 0z m712-769l-93-92c31 0 62 0 93 0 0 30 0 61 0 92z m71 56l-70-70c24 0 47 0 70 0 0 23 0 47 0 70z m0 0c0-23 0-47 0-70-23 0-46 0-70 0l-69-69c70 0 140 0 210 0 0 70 0 140 0 209l-54-53-17-17z m-72 463c-95 0-189 0-283 0 0-11 0-22 0-32 95 0 189 0 283 0 0 11 0 21 0 32z m-283-211c81 0 162 0 243 0l34 34c-93 0-185 0-277 0 0-12 0-23 0-34z m0-177c22 0 44 0 66 0l33 33c-33 0-66 0-99 0 0-12 0-23 0-33z m-92 80c-8 8-16 16-23 23-31-30-63-60-94-90-17 16-35 33-53 50-8-8-16-16-24-25 27-26 53-50 79-76 39 40 77 79 115 118z m-169 160c-8-8-16-15-25-23 26-25 52-50 76-72 40 38 79 76 117 112-8 9-15 16-22 24-31-30-62-60-93-91-18 17-36 34-53 50z m146 220c-32-31-63-61-94-91-17 16-35 33-52 49-8-8-17-15-25-23 27-26 53-50 79-76 39 40 77 79 114 117-8 9-15 16-22 24z m447-255l-107-108c-1-1-2-2-2-2-1 0-1-1-2-2l-205-204 0 0-53-173 0 0 170 52c1 0 2 0 2 0s1 1 2 2l203 203c1 1 2 2 2 2 1 1 1 1 2 2l108 108 0 0-120 120 0 0z m-245-425l-86-26 0 0 27 86 0 0 59-60c1 0 1 0 0 0z m400 409l-50 49c-14 14-35 14-49 0l-25-24 0 0 99-99 0 0 25 25c13 13 13 35 0 49z" horiz-adv-x="1000" />

<glyph glyph-name="trophy_cog" unicode="&#xe89c;" d="M600-60c0 8 3 16 7 22 3 5 8 11 15 19 1 1 1 2 2 3l-30 5c-9 1-18 6-24 14-5 7-7 15-7 23v59c0 8 2 16 7 22 1 2 3 4 4 5-2 8-3 15-3 24 0 19 3 35 9 50s15 27 29 40c20 15 37 33 53 53 42 2 82 10 120 25s70 33 97 54 47 46 62 73 23 53 23 80v71c0 15-5 28-15 38-11 11-23 16-38 16h-161v53c0 25-9 46-26 63s-39 27-63 27h-322c-24 0-45-9-63-27s-26-38-26-63v-53h-161c-15 0-27-5-38-16-10-10-15-23-15-38v-71c0-27 7-53 23-80s36-51 62-73 59-39 97-54 78-23 120-25c16-20 34-38 53-53 14-13 24-26 30-40s8-31 8-50c0-20-6-37-17-51s-30-21-55-21c-28 0-53-8-74-25s-33-38-33-64v-36c0-5 2-9 5-13s8-5 13-5h337c-3 6-5 12-5 19z m150 624h143v-53c0-29-18-59-53-91s-79-52-131-63c27 61 41 130 41 207z m-590-144c-35 32-53 62-53 91v53h143c0-77 14-146 41-207-52 11-96 32-131 63z m704-365c0 19-7 35-20 48s-30 20-49 20-35-7-48-20-20-29-20-48 7-35 20-48 29-20 48-20 35 6 49 20c13 13 20 29 20 48z m136 29v-59c0-2-1-4-2-6s-3-4-5-4l-50-7c-3-10-7-18-10-25 6-9 16-21 28-37 2-2 3-4 3-6s-1-5-2-6c-5-7-14-16-27-29s-21-19-25-19c-2 0-4 1-7 2l-36 29c-8-4-16-7-25-10-3-24-5-41-8-50-1-5-4-7-9-7h-59c-3 0-5 1-7 2-2 2-3 4-3 6l-7 49c-9 3-17 6-24 10l-38-29c-2-1-4-2-7-2-2 0-4 1-6 3-23 20-37 35-44 45-1 2-2 4-2 6 0 2 1 4 2 6 3 4 7 10 14 18s11 14 14 19c-5 8-8 17-11 26l-49 7c-2 1-4 2-5 4-2 1-2 4-2 6v59c0 2 0 4 2 6s3 3 5 4l49 7c3 8 6 16 11 25-7 10-17 22-29 36-1 3-2 5-2 7 0 2 0 4 2 6 5 6 13 16 26 29s22 19 26 19c2 0 4-1 6-3l37-28c8 4 16 7 24 10 3 24 6 40 8 49 1 5 5 8 10 8h59c3 0 5-1 7-3 1-1 2-3 3-5l7-49c9-3 17-6 24-10l38 28c2 2 4 3 6 3 3 0 5-1 7-3 23-21 38-36 44-45 1-2 2-4 2-6 0-2-1-4-2-6-3-4-7-10-14-18s-11-14-14-19c4-9 8-17 11-26l48-7c3-1 5-2 6-4 1-2 2-4 2-6z" horiz-adv-x="1000" />

<glyph glyph-name="trophy_upload" unicode="&#xe89d;" d="M611 69c-9 4-17 9-23 16-11 14-17 31-17 51 0 19 3 35 9 50s15 27 29 40c1 1 1 1 2 2v26c0 12 5 24 13 33 9 8 21 13 33 13h115c3 1 7 3 10 4 38 15 70 33 97 54s47 46 62 73 23 53 23 80v71c0 15-5 28-15 38-11 11-23 16-38 16h-161v53c0 25-9 46-26 63s-39 27-63 27h-322c-24 0-45-9-63-27s-26-38-26-63v-53h-161c-15 0-27-5-38-16-10-10-15-23-15-38v-71c0-27 7-53 23-80s36-51 62-73 59-39 97-54 78-23 120-25c16-20 34-38 53-53 14-13 24-26 30-40s8-31 8-50c0-20-6-37-17-51s-30-21-55-21c-28 0-53-8-74-25s-33-38-33-64v-36c0-5 2-9 5-13s8-5 13-5h343v148z m139 495h143v-53c0-29-18-59-53-91s-79-52-131-63c27 61 41 130 41 207z m-590-144c-35 32-53 62-53 91v53h143c0-77 14-146 41-207-52 11-96 32-131 63z m826-234c5-5 9-11 12-18 3-8 5-15 5-22v-276c0-7-3-12-7-16-4-5-10-7-16-7h-323c-6 0-12 2-16 7-5 4-7 10-7 16v384c0 6 2 12 7 16 4 5 10 7 16 7h215c7 0 14-2 21-5s14-7 19-11l74-75z m-106 58v-90h90c-1 5-3 8-5 10l-75 75c-2 2-5 4-10 5z m92-366v245h-100c-6 0-12 3-16 7-5 5-7 10-7 16v100h-184v-368h307z m-43 159c0-5-2-9-5-13l-11-10c-3-4-8-6-13-6-5 0-9 2-13 6l-41 41v-100c0-5-2-9-6-12-3-3-7-4-12-4h-19c-5 0-9 1-12 4-4 3-6 7-6 12v100l-42-41c-3-4-7-6-12-6s-10 2-13 6l-11 10c-3 4-5 8-5 13 0 5 2 9 5 13l93 92c3 4 7 6 12 6 6 0 10-2 13-6l93-92c3-4 5-8 5-13z" horiz-adv-x="1000" />

<glyph glyph-name="file_log" unicode="&#xe89e;" d="M890 637c10-10 19-24 27-42s11-34 11-49v-643c0-15-5-27-16-38s-23-16-38-16h-750c-15 0-27 6-38 16s-15 23-15 38v893c0 15 5 27 15 38s23 16 38 16h500c15 0 32-4 49-12s32-16 43-26l174-175z m-248 137v-210h210c-4 11-8 18-12 23l-175 174c-4 5-12 9-23 13z m214-853v571h-232c-15 0-27 6-38 16s-15 23-15 38v232h-429v-857h714z m-575 298h93v-35h-137v213h44v-178z m284 67c0-21-4-40-11-56-8-15-18-28-32-36-14-9-30-13-48-13-17 0-33 4-47 13-14 8-24 20-32 36-8 16-12 34-12 54v11c0 21 4 39 12 55 7 16 18 29 32 37 14 9 29 13 47 13 18 0 34-4 48-13 13-8 24-21 32-37 7-16 11-34 11-55v-9z m-44 9c0 23-4 40-12 51-8 12-20 18-35 18-14 0-26-6-34-18-8-11-12-28-12-50v-10c0-22 4-39 12-51 8-12 20-18 35-18 14 0 26 6 34 17 7 12 11 29 12 51v10z m245-84c-8-10-19-17-34-22-14-6-30-8-48-8-18 0-34 4-48 12s-25 20-33 35c-7 15-11 33-11 54v15c0 21 3 39 11 55 7 16 17 27 31 36 13 8 29 12 47 12 25 0 45-6 59-18 15-12 23-30 26-53h-43c-2 13-6 21-13 27-7 6-16 9-28 9-14 0-26-6-34-17-7-12-11-28-12-50v-14c0-22 5-39 13-51 9-11 21-17 37-17 17 0 29 4 36 11v36h-40v33h84v-85z" horiz-adv-x="1000" />

<glyph glyph-name="ec_circle" unicode="&#xe89f;" d="M499 851c-276 0-500-224-500-500s224-500 500-500 500 224 500 500-224 500-500 500z m-62-714h-276v426h269v-85h-167v-79h142v-85h-142v-91h174v-86z m264-8c-108 0-200 75-200 219 0 142 95 223 203 223 56 0 100-26 129-56l-53-65c-22 19-44 33-74 33-55 0-100-49-100-132 0-85 39-134 99-134 33 0 61 17 81 39l54-64c-36-41-84-63-139-63z" horiz-adv-x="1000" />

<glyph glyph-name="returned_goods" unicode="&#xe8a0;" d="M829 838h-658l-171-301v-9-666h1000v675l-171 301z m82-275h-387v210h268l119-210z m-703 210h268v-210h-387l119 210z m-143-846v588h871v-588h-871z m611 384c-33 33-79 53-129 53h-66v10 68l-169-137 169-138v71 7h66c18 0 33-7 45-19 11-11 18-27 18-44 0-18-7-34-18-45-12-12-27-19-45-19h-277v-119h277c51 0 97 21 129 54 33 33 54 79 54 129 0 50-21 96-54 129z" horiz-adv-x="1000" />

<glyph glyph-name="user_duplication_alerts" unicode="&#xe95f;" d="M764 69c0-40-12-75-35-104s-51-44-84-44h-476c-33 0-61 15-84 44s-35 64-35 104c0 32 1 62 4 90s9 56 18 85 19 53 33 73 30 37 52 50 47 19 75 19c49-48 107-72 175-72s126 24 175 72c28 0 53-7 75-19s39-30 52-50 24-45 33-73 14-57 17-85 5-58 5-90z m-143 495c0-59-21-109-63-151s-92-63-151-63-110 21-152 63-62 92-62 151 20 110 62 152 93 63 152 63 110-21 151-63 63-93 63-152z m50 1c0-60-20-113-59-156 31-1 59-8 83-23 5-3 10-6 15-9 13 8 26 18 37 30 42 41 62 91 62 150s-20 108-62 149c-41 41-91 62-149 62-13 0-25-1-37-3 14-9 28-20 40-33 46-46 70-102 70-167z m275-409c-3 28-9 56-18 84-8 28-19 52-32 72-13 20-30 36-52 49s-46 19-74 19c-10-10-21-19-33-27 7-8 13-15 18-24 14-22 26-48 35-78 9-30 15-60 19-89 3-29 5-60 5-92 0-46-14-86-40-119-10-11-20-21-31-29h90c32 0 60 14 83 43 23 28 34 63 34 103 0 31-1 61-4 88z" horiz-adv-x="1000" />

<glyph glyph-name="download-cloud-1" unicode="&#xf015;" d="M0 274q2 54 23 103t63 87 95 61q64 28 154 15 39 79 113 127t164 49q83 0 152-41t109-111 40-148v-29h7q80 32 159-4t112-113q31-81-4-159t-113-113l-17-4t-16-4-13-3-15-2-13-1h-724q-84 0-154 49t-102 134q-23 52-20 107z m448 103q-6-9 4-20l131-219q8-8 15-8 3 0 7 2t6 4l1 2 140 219q6 12 0 21t-22 9h-52v102h-153v-102h-59q-12 0-18-10z" horiz-adv-x="1205.6" />

<glyph glyph-name="download" unicode="&#xf02e;" d="M0 84v73q0 33 24 56t57 24 56-24 24-56v-73q0-17 12-29t30-13h531q18 0 30 13t12 29v73q0 33 24 56t56 24 57-24 24-56v-73q0-84-59-143t-144-60h-531q-84 0-144 60t-59 143z m155 359q0 33 24 57 23 23 56 23t57-23l105-106v344q0 33 24 57t56 23 57-23 24-57v-344l110 110q24 24 57 24t56-24q24-23 24-56t-24-57l-247-247q-24-25-57-25-32 0-56 25l-242 242q-24 24-24 57z" horiz-adv-x="937.5" />

<glyph glyph-name="info-circled" unicode="&#xf085;" d="M0 350q0 95 37 182t100 149 149 100 183 37q95 0 182-37t149-100 100-149 37-182q0-95-37-182t-100-150-149-100-182-37q-96 0-183 37t-149 100-100 150-37 182z m398 170q0-29 20-46t51-17q32 0 51 17t19 46-19 45-51 17q-32 0-51-17t-20-45z m5-402h132v299h-132v-299z" horiz-adv-x="937.5" />

<glyph glyph-name="building" unicode="&#xf0f7;" d="M214 118v-36q0-7-5-12t-13-6h-35q-7 0-13 6t-5 12v36q0 7 5 12t13 6h35q8 0 13-6t5-12z m0 143v-36q0-7-5-13t-13-5h-35q-7 0-13 5t-5 13v36q0 7 5 12t13 6h35q8 0 13-6t5-12z m143 0v-36q0-7-5-13t-13-5h-35q-8 0-13 5t-5 13v36q0 7 5 12t13 6h35q8 0 13-6t5-12z m-143 143v-36q0-7-5-13t-13-5h-35q-7 0-13 5t-5 13v36q0 7 5 12t13 5h35q8 0 13-5t5-12z m429-286v-36q0-7-5-12t-13-6h-36q-7 0-12 6t-6 12v36q0 7 6 12t12 6h36q7 0 13-6t5-12z m-143 143v-36q0-7-5-13t-13-5h-36q-7 0-12 5t-5 13v36q0 7 5 12t12 6h36q7 0 13-6t5-12z m-143 143v-36q0-7-5-13t-13-5h-35q-8 0-13 5t-5 13v36q0 7 5 12t13 5h35q8 0 13-5t5-12z m-143 142v-35q0-7-5-13t-13-5h-35q-7 0-13 5t-5 13v35q0 8 5 13t13 5h35q8 0 13-5t5-13z m429-285v-36q0-7-5-13t-13-5h-36q-7 0-12 5t-6 13v36q0 7 6 12t12 6h36q7 0 13-6t5-12z m-143 143v-36q0-7-5-13t-13-5h-36q-7 0-12 5t-5 13v36q0 7 5 12t12 5h36q7 0 13-5t5-12z m-143 142v-35q0-7-5-13t-13-5h-35q-8 0-13 5t-5 13v35q0 8 5 13t13 5h35q8 0 13-5t5-13z m-143 143v-35q0-8-5-13t-13-5h-35q-7 0-13 5t-5 13v35q0 8 5 13t13 5h35q8 0 13-5t5-13z m429-285v-36q0-7-5-13t-13-5h-36q-7 0-12 5t-6 13v36q0 7 6 12t12 5h36q7 0 13-5t5-12z m-143 142v-35q0-7-5-13t-13-5h-36q-7 0-12 5t-5 13v35q0 8 5 13t12 5h36q7 0 13-5t5-13z m-143 143v-35q0-8-5-13t-13-5h-35q-8 0-13 5t-5 13v35q0 8 5 13t13 5h35q8 0 13-5t5-13z m286-143v-35q0-7-5-13t-13-5h-36q-7 0-12 5t-6 13v35q0 8 6 13t12 5h36q7 0 13-5t5-13z m-143 143v-35q0-8-5-13t-13-5h-36q-7 0-12 5t-5 13v35q0 8 5 13t12 5h36q7 0 13-5t5-13z m143 0v-35q0-8-5-13t-13-5h-36q-7 0-12 5t-6 13v35q0 8 6 13t12 5h36q7 0 13-5t5-13z m-143-768h214v858h-643v-858h215v125q0 8 5 13t13 5h178q7 0 13-5t5-13v-125z m286 893v-928q0-15-11-25t-25-11h-714q-15 0-25 11t-11 25v928q0 15 11 25t25 11h714q15 0 25-11t11-25z" horiz-adv-x="785.7" />

<glyph glyph-name="building-filled" unicode="&#xf1ad;" d="M750 850q15 0 25-11t11-25v-928q0-15-11-25t-25-11h-714q-15 0-25 11t-11 25v928q0 15 11 25t25 11h714z m-464-161v-35q0-8 5-13t13-5h35q8 0 13 5t5 13v35q0 8-5 13t-13 5h-35q-8 0-13-5t-5-13z m0-143v-35q0-8 5-13t13-5h35q8 0 13 5t5 13v35q0 8-5 13t-13 5h-35q-8 0-13-5t-5-13z m0-142v-36q0-8 5-13t13-5h35q8 0 13 5t5 13v36q0 7-5 12t-13 5h-35q-8 0-13-5t-5-12z m0-143v-36q0-8 5-13t13-5h35q8 0 13 5t5 13v36q0 8-5 13t-13 5h-35q-8 0-13-5t-5-13z m-72-179v36q0 8-5 13t-13 5h-35q-8 0-13-5t-5-13v-36q0-8 5-13t13-5h35q8 0 13 5t5 13z m0 143v36q0 8-5 13t-13 5h-35q-8 0-13-5t-5-13v-36q0-8 5-13t13-5h35q8 0 13 5t5 13z m0 143v36q0 7-5 12t-13 5h-35q-8 0-13-5t-5-12v-36q0-8 5-13t13-5h35q8 0 13 5t5 13z m0 143v35q0 8-5 13t-13 5h-35q-8 0-13-5t-5-13v-35q0-8 5-13t13-5h35q8 0 13 5t5 13z m0 143v35q0 8-5 13t-13 5h-35q-8 0-13-5t-5-13v-35q0-8 5-13t13-5h35q8 0 13 5t5 13z m286-715v107q0 8-5 13t-13 5h-178q-8 0-13-5t-5-13v-107q0-8 5-13t13-5h178q8 0 13 5t5 13z m0 286v36q0 8-5 13t-13 5h-36q-7 0-12-5t-5-13v-36q0-8 5-13t12-5h36q8 0 13 5t5 13z m0 143v36q0 7-5 12t-13 5h-36q-7 0-12-5t-5-12v-36q0-8 5-13t12-5h36q8 0 13 5t5 13z m0 143v35q0 8-5 13t-13 5h-36q-7 0-12-5t-5-13v-35q0-8 5-13t12-5h36q8 0 13 5t5 13z m0 143v35q0 8-5 13t-13 5h-36q-7 0-12-5t-5-13v-35q0-8 5-13t12-5h36q8 0 13 5t5 13z m143-572v36q0 8-5 13t-13 5h-36q-7 0-12-5t-6-13v-36q0-8 6-13t12-5h36q8 0 13 5t5 13z m0 143v36q0 8-5 13t-13 5h-36q-7 0-12-5t-6-13v-36q0-8 6-13t12-5h36q8 0 13 5t5 13z m0 143v36q0 7-5 12t-13 5h-36q-7 0-12-5t-6-12v-36q0-8 6-13t12-5h36q8 0 13 5t5 13z m0 143v35q0 8-5 13t-13 5h-36q-7 0-12-5t-6-13v-35q0-8 6-13t12-5h36q8 0 13 5t5 13z m0 143v35q0 8-5 13t-13 5h-36q-7 0-12-5t-6-13v-35q0-8 6-13t12-5h36q8 0 13 5t5 13z" horiz-adv-x="857.1" />

<glyph glyph-name="database" unicode="&#xf1c0;" d="M429 421q132 0 247 24t181 71v-95q0-38-57-71t-157-52-214-19-215 19-156 52-58 71v95q66-47 181-71t248-24z m0-428q132 0 247 24t181 71v-95q0-39-57-72t-157-52-214-19-215 19-156 52-58 72v95q66-47 181-71t248-24z m0 214q132 0 247 24t181 71v-95q0-38-57-71t-157-52-214-20-215 20-156 52-58 71v95q66-47 181-71t248-24z m0 643q116 0 214-19t157-52 57-72v-71q0-39-57-72t-157-52-214-19-215 19-156 52-58 72v71q0 39 58 72t156 52 215 19z" horiz-adv-x="857.1" />

<glyph glyph-name="calc" unicode="&#xf1ec;" d="M214-7q0 29-21 50t-50 21-51-21-21-50 21-51 51-21 50 21 21 51z m215 0q0 29-21 50t-51 21-50-21-21-50 21-51 50-21 51 21 21 51z m-215 214q0 30-21 51t-50 21-51-21-21-51 21-50 51-21 50 21 21 50z m429-214q0 29-21 50t-51 21-50-21-21-50 21-51 50-21 51 21 21 51z m-214 214q0 30-21 51t-51 21-50-21-21-51 21-50 50-21 51 21 21 50z m-215 214q0 30-21 51t-50 21-51-21-21-51 21-50 51-21 50 21 21 50z m429-214q0 30-21 51t-51 21-50-21-21-51 21-50 50-21 51 21 21 50z m-214 214q0 30-21 51t-51 21-50-21-21-51 21-50 50-21 51 21 21 50z m428-428v214q0 29-21 50t-50 22-50-22-22-50v-214q0-29 22-50t50-22 50 22 21 50z m-214 428q0 30-21 51t-51 21-50-21-21-51 21-50 50-21 51 21 21 50z m214 179v143q0 14-10 25t-26 11h-714q-14 0-25-11t-11-25v-143q0-14 11-25t25-11h714q15 0 26 11t10 25z m0-179q0 30-21 51t-50 21-51-21-21-51 21-50 51-21 50 21 21 50z m72 358v-858q0-29-22-50t-50-21h-786q-29 0-50 21t-21 50v858q0 29 21 50t50 21h786q29 0 50-21t22-50z" horiz-adv-x="1000" />

<glyph glyph-name="user-plus" unicode="&#xf234;" d="M393 350q-89 0-152 63t-62 151 62 152 152 63 151-63 63-152-63-151-151-63z m536-71h196q7 0 13-6t5-12v-107q0-8-5-13t-13-5h-196v-197q0-7-6-12t-12-6h-107q-8 0-13 6t-5 12v197h-197q-7 0-12 5t-6 13v107q0 7 6 12t12 6h197v196q0 7 5 13t13 5h107q7 0 12-5t6-13v-196z m-411-125q0-29 21-51t50-21h143v-133q-38-28-95-28h-488q-67 0-108 39t-41 106q0 30 2 58t8 61 15 60 24 55 34 45 48 30 62 11q11 0 22-10 44-34 86-51t92-17 92 17 86 51q11 10 22 10 73 0 121-54h-125q-29 0-50-21t-21-50v-107z" horiz-adv-x="1142.9" />

<glyph glyph-name="user-times" unicode="&#xf235;" d="M393 350q-89 0-152 63t-62 151 62 152 152 63 151-63 63-152-63-151-151-63z m601-179l139-138q5-5 5-13 0-8-5-13l-76-76q-5-5-12-5-8 0-13 5l-139 139-139-139q-5-5-13-5-7 0-12 5l-76 76q-5 5-5 13 0 8 5 13l139 138-139 139q-5 5-5 13 0 8 5 13l76 75q5 5 12 5 8 0 13-5l139-139 139 139q5 5 13 5 7 0 12-5l76-75q5-5 5-13 0-8-5-13z m-278 0l-101-101q-21-20-21-50 0-30 21-51l46-46q-11-2-24-2h-488q-67 0-108 39t-41 106q0 30 2 58t8 61 15 60 24 55 34 45 48 30 62 11q11 0 22-10 86-68 178-68t178 68q11 10 22 10 15 0 31-4-15-15-22-27t-8-32q0-30 21-51z" horiz-adv-x="1142.9" />

<glyph glyph-name="comment" unicode="&#xf4ac;" d="M0 404q0 67 27 130t75 114 114 89 145 59 166 21 166-21 146-59 113-89 76-114 26-130q0-84-42-160t-112-131-168-88-205-33q-105 0-201 31l-121-85q-67-42-94-24t-12 100l25 125q-60 55-92 122t-32 143z" horiz-adv-x="1054.7" />
</font>
</defs>
</svg>
